<svg xmlns="http://www.w3.org/2000/svg" xmlns:xlink="http://www.w3.org/1999/xlink" width="500" zoomAndPan="magnify" viewBox="0 0 375 374.999991" height="500" preserveAspectRatio="xMidYMid meet" version="1.0"><defs><clipPath id="a402037ae6"><path d="M 0 0.945312 L 375 0.945312 L 375 372 L 0 372 Z M 0 0.945312 " clip-rule="nonzero"/></clipPath><clipPath id="be9e34ff97"><path d="M 49.5 0.945312 L 325.5 0.945312 C 352.839844 0.945312 375 23.109375 375 50.445312 L 375 322.5 C 375 349.839844 352.839844 372 325.5 372 L 49.5 372 C 22.160156 372 0 349.839844 0 322.5 L 0 50.445312 C 0 23.109375 22.160156 0.945312 49.5 0.945312 Z M 49.5 0.945312 " clip-rule="nonzero"/></clipPath><clipPath id="25a7dec084"><path d="M 0 0.945312 L 375 0.945312 L 375 372 L 0 372 Z M 0 0.945312 " clip-rule="nonzero"/></clipPath><clipPath id="4711a2ea59"><path d="M 49.5 0.945312 L 325.5 0.945312 C 352.839844 0.945312 375 23.109375 375 50.445312 L 375 322.5 C 375 349.839844 352.839844 372 325.5 372 L 49.5 372 C 22.160156 372 0 349.839844 0 322.5 L 0 50.445312 C 0 23.109375 22.160156 0.945312 49.5 0.945312 Z M 49.5 0.945312 " clip-rule="nonzero"/></clipPath><clipPath id="f50520d062"><rect x="0" width="375" y="0" height="372"/></clipPath><clipPath id="92283d60ac"><path d="M 16.238281 15.214844 L 358.535156 15.214844 L 358.535156 357.511719 L 16.238281 357.511719 Z M 16.238281 15.214844 " clip-rule="nonzero"/></clipPath><clipPath id="7ffbf3d0ce"><rect x="0" width="375" y="0" height="372"/></clipPath></defs><g transform="matrix(1, 0, 0, 1, 0, 3)"><g clip-path="url(#7ffbf3d0ce)"><g clip-path="url(#a402037ae6)"><g clip-path="url(#be9e34ff97)"><g transform="matrix(1, 0, 0, 1, 0, 0)"><g clip-path="url(#f50520d062)"><g clip-path="url(#25a7dec084)"><g clip-path="url(#4711a2ea59)"><path fill="#6592ff" d="M 0 0.945312 L 375.402344 0.945312 L 375.402344 372 L 0 372 Z M 0 0.945312 " fill-opacity="1" fill-rule="nonzero"/></g></g></g></g></g></g><g clip-path="url(#92283d60ac)"><path fill="#ffffff" d="M 187.496094 29.042969 C 271.992188 29.042969 341.160156 95.957031 344.71875 179.628906 L 315.640625 179.628906 C 314.066406 147.269531 300.589844 116.957031 277.191406 93.765625 C 252.628906 69.34375 220.472656 56 186.402344 56 C 185.921875 56 185.445312 56 185.03125 56 C 114.15625 56.753906 56.753906 115.316406 57.09375 186.882812 C 58.054688 203.644531 64.347656 246.265625 101.15625 279.722656 C 132.351562 308.113281 167.792969 313.859375 186.402344 314.820312 L 278.421875 314.820312 C 252.699219 333.085938 221.363281 343.828125 187.496094 343.828125 C 100.746094 343.894531 30.140625 273.289062 30.140625 186.46875 C 30.140625 99.652344 100.746094 29.042969 187.496094 29.042969 Z M 259.402344 179.628906 L 228.273438 179.628906 C 209.730469 177.304688 194.339844 165.605469 188.113281 148.910156 C 182.296875 133.378906 186.742188 119.21875 190.027344 111.964844 C 226.90625 114.019531 256.527344 143.097656 259.402344 179.628906 Z M 326.652344 259.882812 L 188.453125 259.8125 C 168.269531 260.152344 149.113281 252.285156 134.609375 237.917969 C 120.3125 223.757812 112.445312 205.078125 112.511719 185.375 C 112.582031 165.054688 120.859375 146.652344 134.203125 133.3125 C 133.3125 138.375 132.765625 143.503906 132.765625 148.773438 C 132.765625 196.117188 169.4375 234.566406 214.519531 234.566406 L 337.328125 234.566406 C 334.523438 243.390625 330.898438 251.878906 326.652344 259.882812 Z M 341.019531 221.019531 L 214.589844 221.019531 C 177.027344 221.019531 146.515625 188.660156 146.515625 148.839844 C 146.515625 138.851562 148.429688 129.273438 152.125 120.242188 C 159.242188 116.480469 167.042969 113.949219 175.25 112.71875 C 171.898438 122.707031 169.4375 137.554688 175.453125 153.699219 C 183.527344 175.316406 203.300781 190.4375 227.179688 193.242188 C 227.449219 193.242188 227.726562 193.3125 228 193.3125 L 344.71875 193.3125 C 344.304688 202.753906 343.074219 211.988281 341.019531 221.019531 Z M 295.117188 301.203125 L 186.8125 301.203125 C 170.324219 300.382812 138.445312 295.25 110.394531 269.664062 C 77.277344 239.5625 71.667969 201.179688 70.777344 186.46875 C 70.507812 122.707031 121.816406 70.300781 185.238281 69.617188 C 215.890625 69.273438 245.378906 81.316406 267.613281 103.414062 C 288.410156 124.074219 300.453125 150.894531 301.957031 179.628906 L 273.015625 179.628906 C 270.074219 134.40625 232.515625 98.488281 186.605469 98.144531 C 186.402344 98.144531 186.199219 98.078125 185.992188 98.078125 C 185.71875 98.078125 185.515625 98.144531 185.308594 98.144531 C 137.757812 98.554688 99.035156 137.484375 98.898438 185.308594 C 98.828125 208.707031 108.066406 230.804688 125.03125 247.566406 C 142.136719 264.535156 164.851562 273.769531 188.59375 273.429688 L 318.582031 273.496094 C 311.808594 283.621094 303.941406 292.925781 295.117188 301.203125 Z M 187.496094 357.511719 C 231.351562 357.511719 271.375 340.953125 301.617188 313.722656 C 302.164062 313.3125 302.707031 312.902344 303.121094 312.355469 C 316.117188 300.382812 327.269531 286.425781 336.097656 270.964844 C 336.507812 270.417969 336.847656 269.867188 337.121094 269.183594 C 344.03125 256.800781 349.4375 243.460938 353.0625 229.367188 C 353.0625 229.300781 353.132812 229.230469 353.132812 229.160156 C 356.691406 215.476562 358.535156 201.179688 358.535156 186.46875 C 358.535156 92.191406 281.839844 15.429688 187.496094 15.429688 C 93.152344 15.429688 16.457031 92.191406 16.457031 186.46875 C 16.457031 280.746094 93.21875 357.511719 187.496094 357.511719 " fill-opacity="1" fill-rule="nonzero"/></g></g></g></svg>