<?xml version="1.0" encoding="UTF-8" standalone="no"?>
<svg
   width="500"
   zoomAndPan="magnify"
   viewBox="0 0 375 374.99999"
   height="500"
   preserveAspectRatio="xMidYMid"
   version="1.0"
   id="svg15"
   xmlns="http://www.w3.org/2000/svg"
   xmlns:svg="http://www.w3.org/2000/svg">
  <defs
     id="defs6">
    <clipPath
       id="c340f895d0">
      <path
         d="M 79.289062,57.125 H 296 V 318 H 79.289062 Z m 0,0"
         clip-rule="nonzero"
         id="path1" />
    </clipPath>
    <clipPath
       id="f255e0ee44">
      <path
         d="m 219,57.125 h 26 V 83 h -26 z m 0,0"
         clip-rule="nonzero"
         id="path2" />
    </clipPath>
  </defs>
  <g
     id="g15"
     transform="matrix(1.3237316,0,0,1.3237316,-60.69778,-60.698411)">
    <g
       clip-path="url(#c340f895d0)"
       id="g7">
      <path
         fill="#16c47f"
         d="m 253.26172,193.59766 c 0,21.73828 -9.95703,41.13281 -25.59766,53.90625 -14.28515,11.67968 -21.79297,27.52734 -21.79297,45.92968 v 24.39844 h -44.41797 v -24.44922 c 0,-18.40234 -7.50781,-34.2539 -21.79296,-45.92969 -15.53516,-12.72265 -25.54297,-32.11718 -25.54297,-53.85546 0,-38.42188 31.12109,-69.54688 69.54687,-69.54688 h 41.08203 v 41.02734 h 28.51563 z M 270.10156,57.160156 h 25.59766 V 82.757812 H 270.10156 Z M 183.71484,124.05078 V 89.171875 c -57.66015,0 -104.425778,46.765625 -104.425778,104.425785 0,50.04687 35.191408,91.85937 82.214848,102.02734 h 44.42187 c 46.97266,-10.16797 82.21484,-51.98047 82.21484,-102.02734 h -63.39453 v -28.51954 h -41.03125 z m 0,0"
         fill-opacity="1"
         fill-rule="evenodd"
         id="path7" />
    </g>
    <path
       fill="#ff9d23"
       d="m 245.23437,103.50781 h 41.02735 v 41.03125 h -41.02735 z m 0,0"
       fill-opacity="1"
       fill-rule="evenodd"
       id="path8" />
    <g
       clip-path="url(#f255e0ee44)"
       id="g9">
      <path
         fill="#ff9d23"
         d="m 219.26953,57.160156 h 25.59766 v 25.597656 h -25.59766 z m 0,0"
         fill-opacity="1"
         fill-rule="evenodd"
         id="path9" />
    </g>
  </g>
</svg>
