<?xml version="1.0" encoding="UTF-8" standalone="no"?>
<!-- Created with Inkscape (http://www.inkscape.org/) -->

<svg
   version="1.1"
   id="svg1"
   width="666.66669"
   height="666.66669"
   viewBox="0 0 666.66669 666.66669"
   sodipodi:docname="414341-PDTRRK-592.eps.svg"
   inkscape:version="1.4.2 (ebf0e940, 2025-05-08)"
   xmlns:inkscape="http://www.inkscape.org/namespaces/inkscape"
   xmlns:sodipodi="http://sodipodi.sourceforge.net/DTD/sodipodi-0.dtd"
   xmlns="http://www.w3.org/2000/svg"
   xmlns:svg="http://www.w3.org/2000/svg">
  <sodipodi:namedview
     id="namedview1"
     pagecolor="#ffffff"
     bordercolor="#000000"
     borderopacity="0.25"
     inkscape:showpageshadow="2"
     inkscape:pageopacity="0.0"
     inkscape:pagecheckerboard="0"
     inkscape:deskcolor="#d1d1d1"
     inkscape:zoom="0.50223489"
     inkscape:cx="178.20347"
     inkscape:cy="233.95428"
     inkscape:window-width="1472"
     inkscape:window-height="816"
     inkscape:window-x="0"
     inkscape:window-y="38"
     inkscape:window-maximized="0"
     inkscape:current-layer="svg1" />
  <defs
     id="defs1" />
  <g
     id="g1"
     transform="matrix(1.1263327,0,0,1.1263327,-40.565836,10.099257)">
    <g
       id="group-R5">
      <path
         id="path3"
         d="m 1699.84,1040.94 c -23.7,0 -48.36,0.83 -73.9,2.53 -700.803,46.71 -758.729,603.01 -618.93,824.91 99.37,-91.53 205.23,-173.32 274.53,-182.84 2.48,-0.34 5,-0.51 7.53,-0.51 104.6,-0.01 255.71,285.06 353.08,495.65 l 0.02,0.03 c 0.93,1.38 31.95,47.12 80.14,47.12 7.08,0 14.53,-0.99 22.31,-3.25 61.53,-17.9 288.27,-230.72 392.63,-284.57 0,0 -139.86,-7.16 -185.56,-65.78 -45.7,-58.62 -173.08,-114.66 -196.19,-123.94 -23.12,-9.27 -35.19,1.1 -56.68,-13.06 -21.49,-14.17 -54.01,-31.67 -54.01,-31.67 v 0 c 0,0 -44.73,-0.27 -72.87,-4.08 -12.16,-1.65 -28.55,-1.11 -43.9,-5.28 -20.17,-5.52 -38.57,-19.12 -43.33,-56.48 -0.96,-7.52 -1.39,-15.49 -1.39,-23.73 v 0 c 0.02,-63.93 25.67,-145.03 26.22,-171.63 0.6,-30.04 24.21,-228.83 89.01,-269.05 17.19,-10.66 30.53,-15.5 40.69,-15.5 9.19,0 15.77,3.96 20.24,11.17 5.41,8.66 7.76,22 7.89,38.76 v 0 0 c 0.12,11.99 -0.9,25.76 -2.74,40.79 -8.75,71.8 -9.93,236.64 51.33,276.52 0,-0.01 0,-0.01 0,-0.01 0,0 19.87,10.73 38.92,16.37 26.48,7.82 82.28,22.53 92.18,40.83 9.89,18.3 354.58,90.81 354.58,90.81 0,0 264.79,52.48 285.35,178.14 20.56,125.67 -517.08,690.38 -517.08,690.38 l -0.75,3.26 c 19.72,5.77 31.07,9.46 31.07,9.46 0,0 -5.07,23.69 -12.98,63.01 -3.97,19.71 -8.64,43.35 -13.75,69.9 -21.5,110.9 -50.6,272.5 -67.1,411 -18.3,152.5 -55.7,260.3 -96.5,335.9 -9.9,-8.91 -20.28,-16.68 -31.23,-23.18 10.92,6.49 21.32,14.31 31.21,23.2 0.01,0 0.01,0 0.01,-0.01 37.97,34.13 68.45,84.09 92.14,135.13 0.64,0 1.27,0 1.91,0 263.78,0 562.16,-48.69 838.63,-129.26 91.87,-26.77 182.29,-36.61 268.23,-36.61 53.77,0 105.77,3.85 155.29,9.81 9.49,-35.01 27.56,-99.9 46.58,-158.47 h 0.02 v 0 0 c 8.06,-24.81 16.27,-48.48 24.08,-68.27 -13.84,-11.23 -22.05,-18.88 -22.05,-18.88 -0.81,-7.76 -1.19,-15.82 -1.19,-24.1 0.01,-3 0.06,-6.02 0.16,-9.07 2.02,-59.46 22.75,-128.38 49.3,-179.05 -40.64,-63 -132.96,-347.51 -161.27,-487.41 -36.84,-182.06 -81.07,-336.18 -98.66,-394.93 l -0.05,-0.11 c -4.91,-16.41 -7.74,-25.36 -7.74,-25.36 v 0 0 c 13.46,-17.43 31.51,-33.1 53.02,-47.19 1.6,-91.69 8.13,-242.25 32.37,-351.32 v 0 c -0.57,-1.96 -1.14,-3.9 -1.71,-5.85 -97.28,22.36 -187.52,38.59 -265.14,43.82 -11.42,0.78 -22.52,1.15 -33.36,1.15 -225.03,0 -328.59,-162.31 -459.16,-324.6 -130.59,-162.31 -288.16,-324.6 -621.45,-324.6 m 2518.84,349.96 c -46.75,53.77 -119.84,113.55 -146.79,124.44 -39.08,15.82 -63.34,25.04 -109.77,63.25 -29.99,24.7 -60.36,34.53 -80.63,34.53 -11.1,0 -19.17,-2.94 -22.51,-8 -1.58,-2.41 -3.98,-6.2 -6.92,-10.84 -11.53,-18.33 -31.03,-49.94 -38.52,-62.11 -1.16,0.85 -2.13,1.3 -2.86,1.3 -0.07,0 -0.14,0 -0.2,-0.01 -7.61,-0.95 -30.68,-5.94 -54.01,-5.94 -9.71,0 -19.48,0.87 -28.19,3.24 -3.83,1.05 -7.26,1.53 -10.37,1.53 -20.89,0 -27.1,-21.84 -43.53,-40.61 -2.06,-2.37 -4.53,-4.44 -7.28,-6.26 -81.86,22.32 -165.88,46.49 -249.37,70.15 21.16,34.05 47.73,70.92 80.14,105.89 66.31,71.56 91.13,162.32 100.39,217.41 28.14,-1.48 44.84,-1.81 44.84,-1.81 v 0 0 c 0,0 -6.53,75.64 -7.96,159.33 45.56,5.82 89.46,20.42 126.1,47.17 43.04,31.44 89.71,124.83 127.22,240.38 12.26,5.77 30.79,17.52 44.96,39.77 39.55,-32.99 85.07,-56.11 124.62,-71.84 87.22,-312.78 364.42,-516.49 333.27,-772.7 -10.17,-83.64 -74.12,-120.83 -172.63,-128.27 m -2992.8,633.37 c 0,0 -36.03,37.05 -106.6,76.95 -5.73,164.23 -130.46,373.42 -190.452,598.52 -53.363,200.23 -4.152,364.99 112.372,506.93 4.4,-32.5 11.62,-67.13 21.04,-102.75 -6.53,-29.49 -11.21,-54.57 -14.34,-72.92 -3.6,-20.9 -5.2,-33.1 -5.2,-33.1 v 0 0 c 0,0 10.13,-2.07 26.47,-4.82 -5.77,-37.9 -9.18,-68.15 -9.18,-68.15 -3.64,-6.42 -7,-13.62 -10.11,-21.47 l 0.01,-0.01 c -38.91,-98.54 -32.55,-217.49 -34.46,-278.35 -1.56,-49.11 3.77,-139.27 3.77,-139.27 l 85.58,-28.52 c 0,0 4.06,18.85 13.2,48.3 l 0.01,0.02 c 1.02,3.3 2.11,6.75 3.28,10.33 9.59,29.44 23.64,67.17 43.06,106.52 18.09,36.67 31.57,79.38 44.27,133.22 45.12,-76.08 91.45,-133.08 128.48,-151.18 1.42,-0.7 2.84,-1.37 4.27,-2.03 -10.15,-49.72 -18.8,-82.52 -18.8,-82.52 0,0 4.4,-0.89 11.6,-2.35 -13.05,-49.9 -25.45,-106.82 -31.81,-161.53 -11.43,-98.29 -76.46,-331.82 -76.46,-331.82 m 2809.84,522.05 c -12.38,6.56 -20.46,10.34 -20.46,10.34 v 0 l -21.87,28.59 -37.77,49.33 c 13.73,126.85 7.13,242.56 -33.17,305.6 -66.15,103.47 -236.28,124.9 -365.9,124.9 -26.78,0 -51.85,-0.91 -73.9,-2.21 l -89.43,189.05 -9.42,19.92 v 0 c 0,0 -36.76,84.24 -74.13,166.43 26.76,5.19 52.3,10.5 76.43,15.53 64.52,13.44 129.73,25.02 193.44,31.79 -47.11,-55.78 -25.21,-128.65 15.36,-193.81 v 0 0 c 54.36,-87.37 142.21,-160.89 142.21,-160.89 0,0 138.32,66.8 138.31,179.9 0,18.59 -3.74,38.42 -12.43,59.41 -16.54,39.94 -36.84,69.1 -58.86,90.09 v 0.03 h -0.03 c -12.22,11.67 -24.98,20.84 -37.92,27.96 162.23,-16.79 294.26,-94.22 346.27,-296.22 40.94,-159.02 3.23,-345.79 -36.58,-463.88 -21.71,-64.4 -34.52,-124.86 -40.15,-181.86 m -2257.29,866.46 c 0.02,0.01 0.05,0.02 0.06,0.03 -0.02,-0.01 -0.04,-0.02 -0.06,-0.03"
         style="fill:#cfffec;fill-opacity:1;fill-rule:nonzero;stroke:none"
         transform="matrix(0.13333333,0,0,-0.13333333,0,666.66667)" />
      <path
         id="path4"
         d="m 2725.7,3761.48 h -362.77 c 0,0 18.69,120.06 71.04,120.06 1.02,0 2.06,-0.05 3.1,-0.14 15.14,-1.35 25.44,-16.69 32.19,-33.17 1.99,-4.85 6.35,-7.22 10.69,-7.22 4.73,0 9.44,2.82 11.02,8.33 14.47,50.7 44.08,128.09 89.96,128.09 47.45,0 49.02,-88.54 45.57,-142.47 -0.33,-5.17 3.83,-8.52 8.08,-8.52 2.41,0 4.85,1.08 6.51,3.53 11.03,16.22 26.51,31.88 45.23,31.88 2.53,0 5.12,-0.29 7.77,-0.9 43.26,-9.99 31.61,-99.47 31.61,-99.47"
         style="fill:#cfffec;fill-opacity:1;fill-rule:nonzero;stroke:none"
         transform="matrix(0.13333333,0,0,-0.13333333,0,666.66667)" />
      <path
         id="path5"
         d="M 724.781,2588 H 362.008 c 0,0 18.699,120.05 71.035,120.05 1.023,0 2.051,-0.04 3.102,-0.13 15.144,-1.35 25.441,-16.7 32.191,-33.17 1.988,-4.86 6.348,-7.23 10.687,-7.23 4.739,0 9.45,2.83 11.02,8.33 14.473,50.71 44.082,128.1 89.961,128.1 47.453,0 49.019,-88.54 45.578,-142.47 -0.328,-5.18 3.824,-8.52 8.066,-8.52 2.418,0 4.86,1.08 6.52,3.52 11.02,16.23 26.504,31.88 45.219,31.88 2.535,0 5.125,-0.29 7.777,-0.9 43.266,-9.98 31.617,-99.46 31.617,-99.46"
         style="fill:#cfffec;fill-opacity:1;fill-rule:nonzero;stroke:none"
         transform="matrix(0.13333333,0,0,-0.13333333,0,666.66667)" />
      <path
         id="path6"
         d="m 4574.41,3086.54 h -362.77 c 0,0 18.7,120.05 71.04,120.05 1.02,0 2.05,-0.04 3.1,-0.14 15.14,-1.34 25.44,-16.69 32.19,-33.16 1.99,-4.86 6.35,-7.23 10.68,-7.23 4.74,0 9.45,2.83 11.03,8.34 14.47,50.7 44.08,128.09 89.96,128.09 47.45,0 49.02,-88.54 45.57,-142.47 -0.32,-5.18 3.83,-8.52 8.07,-8.52 2.42,0 4.86,1.08 6.52,3.52 11.02,16.23 26.51,31.88 45.22,31.88 2.53,0 5.12,-0.29 7.77,-0.9 43.27,-9.98 31.62,-99.46 31.62,-99.46"
         style="fill:#cfffec;fill-opacity:1;fill-rule:nonzero;stroke:none"
         transform="matrix(0.13333333,0,0,-0.13333333,0,666.66667)" />
      <path
         id="path7"
         d="m 4068.29,1049.72 c 0,0 61.08,10.78 57.49,91.63 -3.59,80.85 -30.54,192.23 -84.43,224.57 -53.91,32.34 -93.25,-14.37 -93.25,-14.37 l 120.19,-301.83"
         style="fill:#6d7098;fill-opacity:1;fill-rule:nonzero;stroke:none"
         transform="matrix(0.13333333,0,0,-0.13333333,0,666.66667)" />
      <path
         id="path8"
         d="m 3827.54,1365.91 c 1.8,-26.95 26.95,-66.46 80.85,-95.21 53.9,-28.76 82.65,-131.16 106.87,-176.06 11.14,-20.64 23.24,-31.8 33.07,-37.86 11.56,-7.06 19.97,-7.06 19.97,-7.06 0,0 0.3,7.09 0.35,19.35 0.17,29.15 -1.13,87.56 -11.5,149.54 -14.75,88.01 -66.92,118.58 -66.92,118.58 -9.52,16.22 -30.03,27.78 -53.38,35.09 -38.22,11.93 -84.04,12.47 -101.79,3.47 -5.01,-2.51 -7.79,-5.82 -7.52,-9.84"
         style="fill:#a3a2c0;fill-opacity:1;fill-rule:nonzero;stroke:none"
         transform="matrix(0.13333333,0,0,-0.13333333,0,666.66667)" />
      <path
         id="path9"
         d="m 4036.37,1232.97 c 12.74,-53.92 18.51,-142.91 11.96,-176.19 11.56,-7.06 19.97,-7.06 19.97,-7.06 0,0 3.59,80.85 -11.15,168.89 -14.75,88.01 -66.92,118.58 -66.92,118.58 -9.52,16.22 -30.03,27.78 -53.38,35.09 30.87,-30.94 88.71,-93.66 99.52,-139.31"
         style="fill:#2f2a42;fill-opacity:1;fill-rule:nonzero;stroke:none"
         transform="matrix(0.13333333,0,0,-0.13333333,0,666.66667)" />
      <path
         id="path10"
         d="m 4068.29,1049.72 v 0 0 0 0"
         style="fill:#606188;fill-opacity:1;fill-rule:nonzero;stroke:none"
         transform="matrix(0.13333333,0,0,-0.13333333,0,666.66667)" />
      <path
         id="path11"
         d="m 4048.33,1056.78 v 0 c -9.83,6.06 -21.93,17.22 -33.07,37.86 -24.22,44.9 -52.97,147.3 -106.87,176.06 -38.65,20.62 -62.52,46.77 -73.59,69.86 7.15,2.85 15.24,5.61 22.37,7.89 19.19,-22.34 47.04,-51.41 70.99,-63.38 41.32,-20.65 65.57,-68.92 79.94,-135.64 10.84,-50.27 27.28,-66.6 42.41,-73.52 -0.45,-7.49 -1.17,-13.98 -2.18,-19.13"
         style="fill:#878ba8;fill-opacity:1;fill-rule:nonzero;stroke:none"
         transform="matrix(0.13333333,0,0,-0.13333333,0,666.66667)" />
      <path
         id="path12"
         d="m 4068.3,1049.72 c 0,0 0,0 -0.01,0 v 0 c -0.33,0 -8.63,0.14 -19.96,7.06 v 0 c 1.01,5.15 1.73,11.64 2.18,19.13 4.95,-2.26 9.75,-3.52 14.18,-4.63 1.43,-0.35 2.75,-1.1 3.96,-2.21 -0.05,-12.26 -0.35,-19.35 -0.35,-19.35 v 0"
         style="fill:#2f2a42;fill-opacity:1;fill-rule:nonzero;stroke:none"
         transform="matrix(0.13333333,0,0,-0.13333333,0,666.66667)" />
      <path
         id="path13"
         d="m 3393.45,3054.36 c 0,0 416.05,62.48 529,-114.18 112.94,-176.67 -38.78,-767.2 -161.21,-856.62 -122.43,-89.41 -325.86,-43.06 -401.98,13.14 -76.13,56.21 -111.45,872.35 34.19,957.66"
         style="fill:#2f2a42;fill-opacity:1;fill-rule:nonzero;stroke:none"
         transform="matrix(0.13333333,0,0,-0.13333333,0,666.66667)" />
      <path
         id="path14"
         d="m 3875.43,2319.02 c 0,0 52.72,12.58 71.59,74.56 l -62.88,27.85 c 0,0 -24.62,-63.78 -8.71,-102.41"
         style="fill:#31477d;fill-opacity:1;fill-rule:nonzero;stroke:none"
         transform="matrix(0.13333333,0,0,-0.13333333,0,666.66667)" />
      <path
         id="path15"
         d="m 3875.43,2427.71 c 86.23,-131.17 280.89,-165.28 280.89,-165.28 40.29,11.78 93.99,67.83 147.12,136.2 h 0.02 c 100.89,129.95 199.62,304.42 199.62,304.42 l -80.85,26.94 c 0,0 -141.95,-156.76 -203.01,-190.87 -61.1,-34.15 -79.07,-66.49 -79.07,-66.49 -6.36,6.93 -13.71,13.69 -21.64,20.21 -43.41,35.82 -103.25,63.82 -103.25,63.82 -69.18,19.35 -139.83,-128.95 -139.83,-128.95"
         style="fill:#f39c72;fill-opacity:1;fill-rule:nonzero;stroke:none"
         transform="matrix(0.13333333,0,0,-0.13333333,0,666.66667)" />
      <path
         id="path16"
         d="m 3875.43,2427.71 c 86.23,-131.17 280.89,-165.28 280.89,-165.28 40.29,11.78 93.99,67.83 147.12,136.2 0,0 -94.87,-100.79 -155.21,-109.26 -60.31,-8.45 -174.58,73.66 -186.11,105.11 -11.5,31.45 5.5,111.46 53.14,162.18 -69.18,19.35 -139.83,-128.95 -139.83,-128.95"
         style="fill:#ec7857;fill-opacity:1;fill-rule:nonzero;stroke:none"
         transform="matrix(0.13333333,0,0,-0.13333333,0,666.66667)" />
      <path
         id="path17"
         d="m 3047.99,2083.56 c 0,0 -4.54,-265.13 32.67,-432.54 37.23,-167.42 196.22,274.09 196.22,274.09 0,0 -142.49,125.11 -228.89,158.45"
         style="fill:#2f2a42;fill-opacity:1;fill-rule:nonzero;stroke:none"
         transform="matrix(0.13333333,0,0,-0.13333333,0,666.66667)" />
      <path
         id="path18"
         d="m 3603.73,1928.26 c 0,0 -3.46,-156.31 -105.86,-266.8 -102.4,-110.48 -146.39,-239.85 -146.39,-239.85 0,0 153.29,70.07 252.25,51.21 0,0 51.8,-2.69 70.65,18.86 18.87,21.56 24.26,47.17 53.9,39.08 29.65,-8.08 71.42,1.35 82.2,2.7 10.78,1.35 79.5,-107.81 66.02,-179.21 0,0 -53.89,-14.83 -60.63,-24.26 -6.74,-9.43 -45.81,-49.85 -70.07,-48.51 -24.25,1.35 -88.94,-36.38 -88.94,-36.38 0,0 -333.3,-126.82 -363.8,-148.21 -51.39,-36.06 -293.74,-75.46 -315.31,60.63 -21.56,136.08 189.99,782.87 219.64,852.93 29.64,70.07 370.72,2.7 406.34,-82.19"
         style="fill:#2f2a42;fill-opacity:1;fill-rule:nonzero;stroke:none"
         transform="matrix(0.13333333,0,0,-0.13333333,0,666.66667)" />
      <path
         id="path19"
         d="m 3300.66,1479.71 9.4,-3.44 c 3.42,9.34 7.6,19.29 12.42,29.55 l -9.04,4.26 c -4.96,-10.54 -9.26,-20.75 -12.78,-30.37"
         style="fill:#52526b;fill-opacity:1;fill-rule:nonzero;stroke:none"
         transform="matrix(0.13333333,0,0,-0.13333333,0,666.66667)" />
      <path
         id="path20"
         d="m 3793.43,1493.27 2.14,-9.76 c 9.9,2.16 20.57,4.25 31.74,6.2 l -1.7,9.85 c -11.32,-1.97 -22.14,-4.08 -32.18,-6.29"
         style="fill:#52526b;fill-opacity:1;fill-rule:nonzero;stroke:none"
         transform="matrix(0.13333333,0,0,-0.13333333,0,666.66667)" />
      <path
         id="path21"
         d="m 3298.03,1402.72 -9.93,-1.1 0.13,-1.11 c 1.7,-13.8 5.86,-24.1 12.71,-31.51 l 7.33,6.8 c -5.29,5.72 -8.7,14.44 -10.13,25.97 l -0.11,0.95"
         style="fill:#52526b;fill-opacity:1;fill-rule:nonzero;stroke:none"
         transform="matrix(0.13333333,0,0,-0.13333333,0,666.66667)" />
      <path
         id="path22"
         d="m 3376.98,1373.33 2.7,-9.63 c 10.27,2.86 21.08,6.33 31.27,9.64 l -3.09,9.51 c -10.09,-3.27 -20.79,-6.71 -30.88,-9.52"
         style="fill:#52526b;fill-opacity:1;fill-rule:nonzero;stroke:none"
         transform="matrix(0.13333333,0,0,-0.13333333,0,666.66667)" />
      <path
         id="path23"
         d="m 3369.1,1605.77 c -6.33,-9.49 -12.29,-18.72 -17.74,-27.42 l 8.48,-5.31 c 5.39,8.62 11.31,17.77 17.58,27.18 l -8.32,5.55"
         style="fill:#52526b;fill-opacity:1;fill-rule:nonzero;stroke:none"
         transform="matrix(0.13333333,0,0,-0.13333333,0,666.66667)" />
      <path
         id="path24"
         d="m 3348.19,1553.92 -8.6,5.08 c -5.83,-9.87 -11.21,-19.48 -16,-28.58 l 8.85,-4.66 c 4.71,8.96 10.01,18.43 15.75,28.16"
         style="fill:#52526b;fill-opacity:1;fill-rule:nonzero;stroke:none"
         transform="matrix(0.13333333,0,0,-0.13333333,0,666.66667)" />
      <path
         id="path25"
         d="m 3555.47,1938.91 -9.85,1.71 c -1.84,-10.55 -3.98,-21.19 -6.39,-31.62 l 9.74,-2.24 c 2.46,10.6 4.63,21.42 6.5,32.15"
         style="fill:#52526b;fill-opacity:1;fill-rule:nonzero;stroke:none"
         transform="matrix(0.13333333,0,0,-0.13333333,0,666.66667)" />
      <path
         id="path26"
         d="m 3408.63,1645.39 -8.15,5.79 c -6.81,-9.56 -12.93,-18.3 -18.71,-26.71 l 8.23,-5.67 c 5.76,8.37 11.86,17.06 18.63,26.59"
         style="fill:#52526b;fill-opacity:1;fill-rule:nonzero;stroke:none"
         transform="matrix(0.13333333,0,0,-0.13333333,0,666.66667)" />
      <path
         id="path27"
         d="m 3432.76,1695.8 c -6.33,-8.67 -12.74,-17.44 -19.14,-26.31 l 8.11,-5.85 c 6.39,8.84 12.77,17.6 19.1,26.26 l -8.07,5.9"
         style="fill:#52526b;fill-opacity:1;fill-rule:nonzero;stroke:none"
         transform="matrix(0.13333333,0,0,-0.13333333,0,666.66667)" />
      <path
         id="path28"
         d="m 3303.35,1455.26 -9.66,2.61 c -3.11,-11.55 -5.1,-22.61 -5.9,-32.84 l 9.97,-0.78 c 0.76,9.63 2.63,20.06 5.59,31.01"
         style="fill:#52526b;fill-opacity:1;fill-rule:nonzero;stroke:none"
         transform="matrix(0.13333333,0,0,-0.13333333,0,666.66667)" />
      <path
         id="path29"
         d="m 3325.09,1367.01 -1.89,-9.82 c 3.77,-0.73 7.94,-1.1 12.38,-1.1 6.45,0 13.57,0.76 21.77,2.28 l -1.83,9.83 c -12.54,-2.34 -22.45,-2.71 -30.43,-1.19"
         style="fill:#52526b;fill-opacity:1;fill-rule:nonzero;stroke:none"
         transform="matrix(0.13333333,0,0,-0.13333333,0,666.66667)" />
      <path
         id="path30"
         d="m 3592.81,1410.4 1.67,-9.85 c 10.88,1.83 21.72,4.2 32.21,7.01 l -2.59,9.66 c -10.18,-2.74 -20.71,-5.02 -31.29,-6.82"
         style="fill:#52526b;fill-opacity:1;fill-rule:nonzero;stroke:none"
         transform="matrix(0.13333333,0,0,-0.13333333,0,666.66667)" />
      <path
         id="path31"
         d="m 3645.27,1423.71 3.28,-9.45 c 11.01,3.82 21.29,8.11 30.58,12.77 l -4.47,8.94 c -8.91,-4.46 -18.79,-8.59 -29.39,-12.26"
         style="fill:#52526b;fill-opacity:1;fill-rule:nonzero;stroke:none"
         transform="matrix(0.13333333,0,0,-0.13333333,0,666.66667)" />
      <path
         id="path32"
         d="m 3429.32,1389.79 3.01,-9.55 c 12.49,3.96 22.04,6.73 30.95,9.01 l -2.47,9.69 c -9.1,-2.32 -18.82,-5.14 -31.49,-9.15"
         style="fill:#52526b;fill-opacity:1;fill-rule:nonzero;stroke:none"
         transform="matrix(0.13333333,0,0,-0.13333333,0,666.66667)" />
      <path
         id="path33"
         d="m 3538.86,1405.58 0.09,-10 c 10.84,0.09 21.92,0.73 32.92,1.87 l -1.04,9.94 c -10.68,-1.11 -21.44,-1.72 -31.97,-1.81"
         style="fill:#52526b;fill-opacity:1;fill-rule:nonzero;stroke:none"
         transform="matrix(0.13333333,0,0,-0.13333333,0,666.66667)" />
      <path
         id="path34"
         d="m 3739.75,1477.94 3.62,-9.33 c 8.54,3.32 18.8,6.58 30.49,9.67 l -2.55,9.67 c -12.06,-3.19 -22.67,-6.56 -31.56,-10.01"
         style="fill:#52526b;fill-opacity:1;fill-rule:nonzero;stroke:none"
         transform="matrix(0.13333333,0,0,-0.13333333,0,666.66667)" />
      <path
         id="path35"
         d="m 3708.47,1459.49 c -3.83,-4.17 -8.86,-8.4 -14.95,-12.56 l 5.64,-8.26 c 6.72,4.6 12.33,9.34 16.68,14.07 1.97,2.15 4.71,4.34 8.13,6.52 l -5.34,8.45 c -4.18,-2.65 -7.59,-5.41 -10.16,-8.22"
         style="fill:#52526b;fill-opacity:1;fill-rule:nonzero;stroke:none"
         transform="matrix(0.13333333,0,0,-0.13333333,0,666.66667)" />
      <path
         id="path36"
         d="m 3533.81,1887.35 c -2.85,-10.46 -6,-20.84 -9.37,-30.83 l 9.48,-3.19 c 3.43,10.18 6.64,20.74 9.53,31.4 l -9.64,2.62"
         style="fill:#52526b;fill-opacity:1;fill-rule:nonzero;stroke:none"
         transform="matrix(0.13333333,0,0,-0.13333333,0,666.66667)" />
      <path
         id="path37"
         d="m 3446.06,1713.97 8.07,-5.9 c 6.53,8.92 12.95,17.71 19.16,26.3 l -8.1,5.86 c -6.21,-8.58 -12.61,-17.34 -19.13,-26.26"
         style="fill:#52526b;fill-opacity:1;fill-rule:nonzero;stroke:none"
         transform="matrix(0.13333333,0,0,-0.13333333,0,666.66667)" />
      <path
         id="path38"
         d="m 3503.05,1781.39 -8.81,4.72 c -5.15,-9.57 -10.65,-18.85 -16.34,-27.58 l 8.37,-5.47 c 5.85,8.97 11.49,18.5 16.78,28.33"
         style="fill:#52526b;fill-opacity:1;fill-rule:nonzero;stroke:none"
         transform="matrix(0.13333333,0,0,-0.13333333,0,666.66667)" />
      <path
         id="path39"
         d="m 3504.23,1805.99 9.04,-4.25 c 4.56,9.69 8.91,19.85 12.92,30.2 l -9.33,3.62 c -3.92,-10.15 -8.18,-20.09 -12.63,-29.57"
         style="fill:#52526b;fill-opacity:1;fill-rule:nonzero;stroke:none"
         transform="matrix(0.13333333,0,0,-0.13333333,0,666.66667)" />
      <path
         id="path40"
         d="m 3483.21,1403.77 1.68,-9.86 c 11.73,2 21.77,2.74 31.26,2.26 l 0.51,9.98 c -10.23,0.53 -20.98,-0.26 -33.45,-2.38"
         style="fill:#52526b;fill-opacity:1;fill-rule:nonzero;stroke:none"
         transform="matrix(0.13333333,0,0,-0.13333333,0,666.66667)" />
      <path
         id="path41"
         d="m 3035.69,3857.82 40.64,-173.21 0.24,-1.07 c 0,0 2.67,-32.08 11.43,-74.44 9.75,-47.19 27.09,-107.18 56.71,-149.81 4.52,-6.55 9.34,-12.69 14.49,-18.3 0,0 25.74,-98.87 53.47,-184.28 h 0.02 c 16.33,-50.31 33.35,-95.96 46.23,-113.94 0,0 164.22,30.86 124.88,129.07 0,0 -55.87,128.03 -99.87,222.4 l -0.03,0.09 c -8.52,18.27 -16.6,35.27 -23.74,49.85 l -50.35,114.89 -24.12,55.05 -73.19,167.06 -76.81,-23.36"
         style="fill:#f39c72;fill-opacity:1;fill-rule:nonzero;stroke:none"
         transform="matrix(0.13333333,0,0,-0.13333333,0,666.66667)" />
      <path
         id="path42"
         d="m 3212.69,3256.71 c 16.33,-50.31 33.35,-95.96 46.23,-113.94 0,0 164.22,30.86 124.88,129.07 0,0 -55.87,128.03 -99.87,222.4 1.04,-3.66 39.5,-138.57 27.99,-176.49 -11.67,-38.45 -45.79,-74.67 -99.23,-61.04"
         style="fill:#ec7857;fill-opacity:1;fill-rule:nonzero;stroke:none"
         transform="matrix(0.13333333,0,0,-0.13333333,0,666.66667)" />
      <path
         id="path43"
         d="m 3213.69,3136.39 c 2.42,-71.39 31.83,-156.44 65.89,-207.13 20.54,-21.64 46.22,-21.56 72.47,-10.27 66.75,28.65 137.35,129.6 137.35,129.6 l -96.18,203.33 -9.42,19.92 c -54.34,-14.83 -109.37,-53.5 -141.3,-78.81 -17.28,-13.68 -27.78,-23.47 -27.78,-23.47 -1.11,-10.56 -1.41,-21.69 -1.03,-33.17"
         style="fill:#ff9d23;fill-opacity:1;fill-rule:nonzero;stroke:none"
         transform="matrix(0.13333333,0,0,-0.13333333,0,666.66667)" />
      <path
         id="path44"
         d="m 3262.99,2957.34 c -26.55,50.67 -47.28,119.59 -49.3,179.05 -0.1,3.05 -0.15,6.07 -0.16,9.07 0,8.28 0.38,16.34 1.19,24.1 0,0 10.5,9.79 27.78,23.47 8.51,-38.58 29.55,-125.34 60.34,-194.79 -16.39,-12.88 -30.43,-26.51 -39.43,-40.26 -0.14,-0.21 -0.28,-0.42 -0.42,-0.64"
         style="fill:#de8212;fill-opacity:1;fill-rule:nonzero;stroke:none"
         transform="matrix(0.13333333,0,0,-0.13333333,0,666.66667)" />
      <path
         id="path45"
         d="m 3213.69,3136.39 c 44.98,44.65 147.9,99.28 179.53,115.53 l -9.42,19.92 c -83.71,-22.86 -169.08,-102.28 -169.08,-102.28 -1.11,-10.56 -1.41,-21.69 -1.03,-33.17"
         style="fill:#2f2a42;fill-opacity:1;fill-rule:nonzero;stroke:none"
         transform="matrix(0.13333333,0,0,-0.13333333,0,666.66667)" />
      <path
         id="path46"
         d="m 2995.27,2049.53 c 125.15,-162.05 647.83,-172.47 647.83,-172.47 0,0 -18.52,214.48 0,320.69 20.38,116.77 38.02,288.35 38.02,288.35 47.81,-34.95 120.84,-100.01 162.42,-137.79 19.36,-17.6 31.89,-29.29 31.89,-29.29 13.12,60.21 31.29,105.8 50.2,140.11 42.9,77.83 89.63,97.53 89.63,97.53 l -21.87,28.59 -158.65,207.19 -170.48,141.24 -29.36,24.3 -134.15,85.95 -54.92,35.19 c 0,0 -141.99,-59.42 -182.42,-121.14 -40.42,-61.68 -133.28,-347.67 -161.69,-488.05 -36.84,-182.06 -81.07,-336.18 -98.66,-394.93 l -0.05,-0.11 c -4.91,-16.41 -7.74,-25.36 -7.74,-25.36"
         style="fill:#ff9d23;fill-opacity:1;fill-rule:nonzero;stroke:none"
         transform="matrix(0.13333333,0,0,-0.13333333,0,666.66667)" />
      <path
         id="path47"
         d="m 3643.1,1877.06 c 0,0 -39.91,0.8 -100.28,5.36 -3.34,0.26 -6.7,0.52 -10.16,0.79 -160.49,12.81 -448.72,51.51 -537.39,166.32 0,0 2.83,8.95 7.74,25.36 l 0.05,0.11 c 0,0 68.12,-65.89 203.46,-74.86 7.48,-0.5 14.99,-0.75 22.52,-0.75 128.82,0 262.77,73.34 303.86,239.68 33.61,136.05 131.23,406.04 131.23,406.04 78.29,-86.71 261.5,-185.98 261.5,-185.98 -9.56,-17.34 -18.93,-37.56 -27.55,-61.1 -8.44,-23.03 -16.16,-49.23 -22.65,-79.01 0,0 -12.53,11.69 -31.89,29.29 -41.58,37.78 -114.61,102.84 -162.42,137.79 0,0 -17.64,-171.58 -38.02,-288.35 -6.17,-35.36 -8.23,-82.74 -8.23,-130.2 -0.01,-95.07 8.23,-190.49 8.23,-190.49"
         style="fill:#de8212;fill-opacity:1;fill-rule:nonzero;stroke:none"
         transform="matrix(0.13333333,0,0,-0.13333333,0,666.66667)" />
      <path
         id="path48"
         d="m 3580.82,2902.1 c 30.99,6.1 46.74,23.35 70.27,42.48 l -16.19,13.4 -143.09,113.6 c -18.98,-12.05 -42.68,-23.88 -45.97,-72.09 -4.98,-72.77 71.75,-109.82 134.98,-97.39"
         style="fill:#2f2a42;fill-opacity:1;fill-rule:nonzero;stroke:none"
         transform="matrix(0.13333333,0,0,-0.13333333,0,666.66667)" />
      <path
         id="path49"
         d="m 3843.54,2348.31 c 19.36,-17.6 31.89,-29.29 31.89,-29.29 42.84,196.73 139.83,237.64 139.83,237.64 l -21.87,28.59 c -39.97,-28.59 -123.17,-102.54 -149.85,-236.94"
         style="fill:#2f2a42;fill-opacity:1;fill-rule:nonzero;stroke:none"
         transform="matrix(0.13333333,0,0,-0.13333333,0,666.66667)" />
      <path
         id="path50"
         d="m 3742.42,3124.42 c 0,0 2.79,-78.08 -87.19,-94.09 0,0 22.51,102.17 87.19,94.09"
         style="fill:#2f2a42;fill-opacity:1;fill-rule:nonzero;stroke:none"
         transform="matrix(0.13333333,0,0,-0.13333333,0,666.66667)" />
      <path
         id="path51"
         d="m 3594.9,3291.78 c 54.36,-87.37 142.21,-160.89 142.21,-160.89 0,0 187.51,90.55 125.88,239.31 -16.54,39.94 -36.84,69.1 -58.86,90.09 v 0.03 h -0.03 c -93.78,89.55 -218.77,31.69 -218.77,31.69 -54.57,-56.54 -32.58,-132.54 9.57,-200.23"
         style="fill:#ff9d23;fill-opacity:1;fill-rule:nonzero;stroke:none"
         transform="matrix(0.13333333,0,0,-0.13333333,0,666.66667)" />
      <path
         id="path52"
         d="m 3804.1,3460.32 0.03,-0.03 v 0.03 h -0.03"
         style="fill:#4081a7;fill-opacity:1;fill-rule:nonzero;stroke:none"
         transform="matrix(0.13333333,0,0,-0.13333333,0,666.66667)" />
      <path
         id="path53"
         d="m 3737.11,3130.89 c 0,0 -87.85,73.52 -142.21,160.89 24.39,-18.02 53.09,-26.15 82.21,-26.15 46.54,0 94.16,20.75 126.99,55.01 52.82,55.11 1.11,137.92 0.03,139.65 22.02,-20.99 42.32,-50.15 58.86,-90.09 8.69,-20.99 12.43,-40.82 12.43,-59.41 0.01,-113.1 -138.31,-179.9 -138.31,-179.9"
         style="fill:#de8212;fill-opacity:1;fill-rule:nonzero;stroke:none"
         transform="matrix(0.13333333,0,0,-0.13333333,0,666.66667)" />
      <path
         id="path54"
         d="m 3736.08,3331.47 c 0,0 -49.01,253.54 -205.86,242.03 -146.87,-10.78 -32.44,-205.15 -32.44,-205.15 0,0 212.02,-60.54 238.3,-36.88"
         style="fill:#2f2a42;fill-opacity:1;fill-rule:nonzero;stroke:none"
         transform="matrix(0.13333333,0,0,-0.13333333,0,666.66667)" />
      <path
         id="path55"
         d="m 3542.22,3421.16 c 0,0 -67.29,-13.4 -61,-75.38 0,0 56.99,33.79 61,75.38"
         style="fill:#2f2a42;fill-opacity:1;fill-rule:nonzero;stroke:none"
         transform="matrix(0.13333333,0,0,-0.13333333,0,666.66667)" />
      <path
         id="path56"
         d="m 3659.56,3045.75 -24.66,-87.76 c -2.55,-11.95 -11.81,-21.4 -23.75,-24.02 -102.97,-22.65 -152.02,52.86 -141.66,79.33 13.31,4.73 242.54,78.06 284.24,166.15 0,0 -14.61,-78.72 -94.17,-133.7"
         style="fill:#f39c72;fill-opacity:1;fill-rule:nonzero;stroke:none"
         transform="matrix(0.13333333,0,0,-0.13333333,0,666.66667)" />
      <path
         id="path57"
         d="m 3481.26,3049.56 c 32.96,-12.69 79.38,-24.2 127.73,-15.63 91.2,16.19 138.69,124.13 138.69,124.13 0,0 15.22,73.32 -5.26,141.07 -5.53,18.38 -13.72,36.38 -25.54,52.36 -42.92,58 -114.21,68.35 -153.45,72.09 -19.51,1.86 -38.38,-7.49 -48.63,-24.2 l -17.18,-28.13 -11.49,-18.76 c -2.48,-4.04 -4.68,-8.16 -6.68,-12.39 -6.71,-14.26 -10.78,-29.62 -11.97,-45.41 l -1.34,-18.38 c -8.86,-11.37 -15.71,-24.07 -20.29,-37.55 -4.02,-11.64 -6.37,-23.87 -6.9,-36.32 l -3.56,-82.79 c -1.32,-30.77 17.11,-59.02 45.87,-70.09"
         style="fill:#f39c72;fill-opacity:1;fill-rule:nonzero;stroke:none"
         transform="matrix(0.13333333,0,0,-0.13333333,0,666.66667)" />
      <path
         id="path58"
         d="m 3575.59,3324.9 c 0,0 72.96,27.59 88.54,-32.8 l -11.41,-8.72 c 0,0 -22.05,46.54 -80.09,25.78 l 2.96,15.74"
         style="fill:#2f2a42;fill-opacity:1;fill-rule:nonzero;stroke:none"
         transform="matrix(0.13333333,0,0,-0.13333333,0,666.66667)" />
      <path
         id="path59"
         d="m 3466.14,3276.3 c -8.85,-11.37 -15.71,-24.05 -20.3,-37.53 14.37,2.99 39.29,-0.16 81.1,-25.6 0,0 -15.4,29.78 -39,40.6 -6.34,2.91 -8.07,11.11 -3.43,16.32 l 31.07,34.9 c 0,0 -1.23,10.21 -10.02,17.69 -5.36,4.56 -16.6,12.14 -26.11,17.4 -6.71,-14.23 -10.77,-29.61 -11.95,-45.41 l -1.36,-18.37"
         style="fill:#ec7857;fill-opacity:1;fill-rule:nonzero;stroke:none"
         transform="matrix(0.13333333,0,0,-0.13333333,0,666.66667)" />
      <path
         id="path60"
         d="m 3487.04,3351.36 c 16.77,-8.67 28.48,-19.65 28.48,-19.65 l -4.21,-13.96 c -10.48,9.53 -20.71,15.67 -30.32,19.48 -4.75,1.88 -7.06,7.06 -5,11.12 l 0.06,0.15 c 1.89,3.74 6.82,5.03 10.99,2.86"
         style="fill:#2f2a42;fill-opacity:1;fill-rule:nonzero;stroke:none"
         transform="matrix(0.13333333,0,0,-0.13333333,0,666.66667)" />
      <path
         id="path61"
         d="m 3458.78,3204 126.55,-41.57 c 0,0 -42.6,-59.51 -106.5,-29.6 -50.11,23.45 -20.05,71.17 -20.05,71.17"
         style="fill:#ffffff;fill-opacity:1;fill-rule:nonzero;stroke:none"
         transform="matrix(0.13333333,0,0,-0.13333333,0,666.66667)" />
      <path
         id="path62"
         d="m 3489.41,3048.58 c 0,0 79.46,-23.53 165.81,63.7 0,0 1.88,-46.87 -44.45,-92.84 -33.71,-33.45 -97.39,-27.92 -129.56,-22.42 -9.69,1.65 -14.75,12.44 -9.78,20.92 l 17.98,30.64"
         style="fill:#ec7857;fill-opacity:1;fill-rule:nonzero;stroke:none"
         transform="matrix(0.13333333,0,0,-0.13333333,0,666.66667)" />
      <path
         id="path63"
         d="m 3724.17,3189.5 c 0,0 41.95,33.65 66.8,-0.57 24.84,-34.21 -37.3,-125.69 -77.63,-85.84 -40.32,39.84 10.83,86.41 10.83,86.41"
         style="fill:#f39c72;fill-opacity:1;fill-rule:nonzero;stroke:none"
         transform="matrix(0.13333333,0,0,-0.13333333,0,666.66667)" />
      <path
         id="path64"
         d="m 3573.86,3279.83 c 0,0 16.58,18.57 36.04,10.19 28.37,-12.22 23.36,-38.56 23.36,-38.56 0,0 -10.97,49.84 -59.4,28.37"
         style="fill:#2f2a42;fill-opacity:1;fill-rule:nonzero;stroke:none"
         transform="matrix(0.13333333,0,0,-0.13333333,0,666.66667)" />
      <path
         id="path65"
         d="m 3503.52,3292.54 c 0,0 -9.37,31.74 -33.26,8.62 0,0 20.94,12.31 33.26,-8.62"
         style="fill:#2f2a42;fill-opacity:1;fill-rule:nonzero;stroke:none"
         transform="matrix(0.13333333,0,0,-0.13333333,0,666.66667)" />
      <path
         id="path66"
         d="m 3496.69,3371.72 c 0.05,-0.94 -2.17,-4.46 -2.12,-5.44 0,0 40.96,34.29 113.08,6.45 72.09,-27.84 107.45,-96.1 107.45,-96.1 l 27.32,22.5 c -5.53,18.38 -13.72,36.38 -25.54,52.36 -42.92,58 -114.21,68.35 -153.45,72.09 -19.51,1.86 -38.38,-7.49 -48.63,-24.2 l -18.11,-27.66"
         style="fill:#ec7857;fill-opacity:1;fill-rule:nonzero;stroke:none"
         transform="matrix(0.13333333,0,0,-0.13333333,0,666.66667)" />
      <path
         id="path67"
         d="m 3702.21,3184.09 23.69,-10.78 34.55,30.99 c 5.44,29.78 -18.7,109.28 -24.37,127.17 -3.04,2.91 -8.03,5.77 -11.57,8.63 0,0 -23.78,-82.25 1.95,-112.71 l -24.25,-43.3"
         style="fill:#2f2a42;fill-opacity:1;fill-rule:nonzero;stroke:none"
         transform="matrix(0.13333333,0,0,-0.13333333,0,666.66667)" />
      <path
         id="path68"
         d="m 3076.33,3684.61 0.24,-1.07 c 0,0 2.67,-32.08 11.43,-74.44 l 121.81,49.97 -24.12,55.05 -109.36,-29.51"
         style="fill:#ec7857;fill-opacity:1;fill-rule:nonzero;stroke:none"
         transform="matrix(0.13333333,0,0,-0.13333333,0,666.66667)" />
      <path
         id="path69"
         d="m 3264.24,2654.19 c -6.62,0 -13.63,1.36 -21.04,4.39 -88.93,36.38 11.86,191.19 11.86,191.19 l 96.42,-86.09 c 0,0 -27.92,-109.49 -87.24,-109.49"
         style="fill:#de8212;fill-opacity:1;fill-rule:nonzero;stroke:none"
         transform="matrix(0.13333333,0,0,-0.13333333,0,666.66667)" />
      <path
         id="path70"
         d="m 2947.33,3593.64 429.18,160.23 -106.1,284.18 -429.17,-160.23 106.09,-284.18"
         style="fill:#2f2a42;fill-opacity:1;fill-rule:nonzero;stroke:none"
         transform="matrix(0.13333333,0,0,-0.13333333,0,666.66667)" />
      <path
         id="path71"
         d="m 2841.24,3877.82 106.09,-284.18 429.17,160.23 -16.15,4.58 -506.92,143.97 -8.22,-16.57 0.01,-0.02 -3.98,-8.01"
         style="fill:#2f2a42;fill-opacity:1;fill-rule:nonzero;stroke:none"
         transform="matrix(0.13333333,0,0,-0.13333333,0,666.66667)" />
      <path
         id="path72"
         d="m 2845.21,3885.85 101.32,-272.48 c 5.89,2.21 3.29,1.23 13,4.86 l 154.05,218.22 -260.15,65.97 -8.22,-16.57"
         style="fill:#ffffff;fill-opacity:1;fill-rule:nonzero;stroke:none"
         transform="matrix(0.13333333,0,0,-0.13333333,0,666.66667)" />
      <path
         id="path73"
         d="m 2959.53,3618.23 410.42,153.23 -106.1,284.18 -410.42,-153.23 106.1,-284.18"
         style="fill:#2f2a42;fill-opacity:1;fill-rule:nonzero;stroke:none"
         transform="matrix(0.13333333,0,0,-0.13333333,0,666.66667)" />
      <path
         id="path74"
         d="m 2992.22,3977.76 0.07,0.07 c 4.94,5.81 13.95,9.78 19.53,9.44 1.23,5.65 7.83,9.81 15.24,11.32 4.33,0.89 8.79,0.07 12.72,-1.93 3.37,6.51 11.88,10.38 16.52,7.8 0,0 1.13,-0.48 3.05,-1.37 1.58,4.85 5.22,7.36 5.22,7.36 h 0.03 c 4.78,6.73 18.42,10.29 23.63,7.4 0,0 45.43,-18.34 49.76,-53.36 4.33,-35.02 10.75,-75.8 -5.48,-69.98 -4.65,1.66 -9.23,7.46 -13.27,15.33 1.75,-21.02 0.73,-36.73 -9.77,-32.97 -5.84,2.09 -11.57,10.7 -16.27,21.76 1.02,-17.83 -0.76,-30.22 -10.2,-26.83 -8.53,3.05 -16.82,20 -22.02,38.18 1.58,-20.29 0.37,-35.19 -9.9,-31.51 -12.55,4.5 -16.14,32.7 -24.92,55.5 -10.31,26.72 -12.68,12.74 -27.81,22.52 l -13.58,-5.07 c -2.84,15.59 6.6,25.47 7.45,26.34"
         style="fill:#f39c72;fill-opacity:1;fill-rule:nonzero;stroke:none"
         transform="matrix(0.13333333,0,0,-0.13333333,0,666.66667)" />
      <path
         id="path75"
         d="m 4398.92,2684.7 c -19.1,11.87 -32.93,30.51 -38.91,52.18 -1.72,6.24 -3.74,12.84 -6.05,19.33 -8.99,25.15 -1.8,79.05 0,100.61 1.79,21.56 17.07,62.88 21.56,67.37 4.48,4.49 31.43,-14.65 20.65,-42.36 -10.78,-27.7 -3.04,-58.5 2.53,-67.35 5.56,-8.86 30.71,7.31 37,23.47 6.28,16.18 61.09,138.34 71.86,141.94 10.78,3.59 19.76,0.9 12.58,-30.54 -7.19,-31.44 -41.32,-86.24 -36.83,-101.51 4.49,-15.28 12.58,-2.7 15.27,5.39 2.7,8.08 46.71,123.71 53.9,127.88 7.19,4.17 27.84,11.38 17.06,-37.59 -10.77,-48.97 -44.24,-108.71 -42.22,-119.49 2.03,-10.78 47.84,108.47 60.64,115.21 12.8,6.74 22.24,-5.39 12.13,-35.04 -10.11,-29.64 -37.1,-87.12 -39.36,-93.61 -1.91,-5.47 -0.84,-10.08 3.88,-7.38 4.72,2.69 33.21,72.7 39.74,76.74 6.52,4.04 22.69,-3.37 5.17,-51.2 -17.52,-47.84 -29.2,-90.22 -76.81,-134.24 -29.38,-27.17 -43.78,-43.63 -71.41,-39.58 -16.54,2.42 -41.72,16.93 -62.38,29.77"
         style="fill:#f39c72;fill-opacity:1;fill-rule:nonzero;stroke:none"
         transform="matrix(0.13333333,0,0,-0.13333333,0,666.66667)" />
      <path
         id="path76"
         d="m 3804.13,2819.21 c 0,0 11.74,129.52 -89.96,156.47 -72.93,19.32 -196.5,-115.03 -227.78,-265.89 -55.32,-266.8 72.9,-499.47 156.73,-530 0,0 76.51,59.28 18.18,139.23 0,0 -157.78,159.08 -87.44,388.07 58.59,190.73 152.18,239.84 187.38,146.23 l 42.89,-34.11"
         style="fill:#2f2a42;fill-opacity:1;fill-rule:nonzero;stroke:none"
         transform="matrix(0.13333333,0,0,-0.13333333,0,666.66667)" />
      <path
         id="path77"
         d="m 3154.02,2667.55 43.6,134.09 c 0,0 -6.07,234.23 241.04,293.27 -2.51,7.84 -3.66,16.2 -3.29,24.74 l 1.54,35.71 C 3406,3153.34 3091,3062.28 3154.02,2667.55"
         style="fill:#2f2a42;fill-opacity:1;fill-rule:nonzero;stroke:none"
         transform="matrix(0.13333333,0,0,-0.13333333,0,666.66667)" />
      <path
         id="path78"
         d="m 4140.15,2394.48 c -4.73,42.12 0,78.15 0,78.15 -6.36,6.93 -13.71,13.69 -21.64,20.21 -10.69,-82.64 21.64,-98.36 21.64,-98.36"
         style="fill:#ec7857;fill-opacity:1;fill-rule:nonzero;stroke:none"
         transform="matrix(0.13333333,0,0,-0.13333333,0,666.66667)" />
      <path
         id="path79"
         d="m 3144.71,3459.29 c 4.52,-6.55 9.34,-12.69 14.49,-18.3 0,0 41.58,24.26 53.57,30.56 0,0 -38.37,-0.67 -68.06,-12.26"
         style="fill:#ec7857;fill-opacity:1;fill-rule:nonzero;stroke:none"
         transform="matrix(0.13333333,0,0,-0.13333333,0,666.66667)" />
      <path
         id="path80"
         d="m 3810.48,1527.21 c 22.31,-21.08 40.37,-70.37 52.09,-110.31 l 0.06,-0.16 c 9.51,-32.39 14.82,-58.61 14.82,-58.61 19.83,-21.57 65.08,-15.37 137.81,-23.27 65.46,-7.11 111.33,-52.62 160.14,-72.21 h 0.05 c 5.42,-2.22 10.86,-4.05 16.36,-5.5 29.02,-7.63 49.48,-2.86 60.61,11.18 10.08,12.7 12.53,33.02 6.76,58.64 -12.13,54.01 -148.21,172.58 -187.29,188.37 -39.08,15.82 -63.34,25.04 -109.77,63.25 -46.41,38.22 -93.7,40.83 -103.14,26.53 -1.58,-2.41 -3.98,-6.2 -6.92,-10.84 -14.49,-23.04 -41.58,-67.07 -41.58,-67.07"
         style="fill:#a3a2c0;fill-opacity:1;fill-rule:nonzero;stroke:none"
         transform="matrix(0.13333333,0,0,-0.13333333,0,666.66667)" />
      <path
         id="path81"
         d="m 3852.06,1594.28 c 15.39,1.7 41.43,2.48 59.93,-8.27 27.84,-16.18 67.37,-53.9 109.58,-73.66 42.23,-19.77 123.08,-75.46 165.31,-114.99 42.2,-39.53 67.05,-101.74 54.79,-122.15 -12.27,-20.46 -34.61,-19.73 -66.22,-12.56 5.42,-2.22 10.86,-4.05 16.36,-5.5 55.24,-14.5 79.5,15.82 67.37,69.82 -12.13,54.01 -148.21,172.58 -187.29,188.37 -39.08,15.82 -63.34,25.04 -109.77,63.25 -46.41,38.22 -93.7,40.83 -103.14,26.53 -1.58,-2.41 -3.98,-6.2 -6.92,-10.84"
         style="fill:#2f2a42;fill-opacity:1;fill-rule:nonzero;stroke:none"
         transform="matrix(0.13333333,0,0,-0.13333333,0,666.66667)" />
      <path
         id="path82"
         d="m 4217.06,1253.53 c -7.52,0 -15.95,1.17 -25.25,3.62 9.3,-2.44 17.73,-3.62 25.25,-3.62 7.1,0 13.39,1.05 18.85,3.05 -5.46,-2 -11.75,-3.05 -18.85,-3.05 m -9.19,4.54 c -9.4,0 -20.22,1.81 -32.42,4.58 v 0 h -0.05 c -48.81,19.59 -94.68,65.1 -160.14,72.21 -8.72,0.95 -17.06,1.7 -25,2.31 -7.57,0.59 -14.78,1.05 -21.64,1.46 -45.91,2.75 -75.99,2.99 -91.17,19.5 0,0 -0.06,0.29 -0.18,0.86 -1,4.78 -6.14,28.8 -14.64,57.75 9.81,-29.78 89.14,-55.49 144.69,-55.49 2.72,0 5.38,0.06 7.97,0.18 2.08,0.11 4.1,0.16 6.09,0.16 5.49,0 10.67,-0.38 15.63,-1.09 0,0 7.93,20.69 10.63,49.45 0,0 14.48,-28.01 8.12,-53.9 34.22,-9.54 53.45,-33.66 96.09,-58.4 22.26,-12.94 43.38,-16.82 60.71,-16.82 13.34,0.01 24.43,2.31 32.07,4.54 -0.36,-4.02 -1.34,-7.46 -2.96,-10.16 -7.53,-12.57 -18.86,-17.14 -33.8,-17.14"
         style="fill:#878ba8;fill-opacity:1;fill-rule:nonzero;stroke:none"
         transform="matrix(0.13333333,0,0,-0.13333333,0,666.66667)" />
      <path
         id="path83"
         d="m 4236.02,1256.62 c 0.01,0 0.02,0.01 0.04,0.01 -0.02,0 -0.03,-0.01 -0.04,-0.01"
         style="fill:#878ba8;fill-opacity:1;fill-rule:nonzero;stroke:none"
         transform="matrix(0.13333333,0,0,-0.13333333,0,666.66667)" />
      <path
         id="path84"
         d="m 4236.19,1256.68 v 0 0"
         style="fill:#878ba8;fill-opacity:1;fill-rule:nonzero;stroke:none"
         transform="matrix(0.13333333,0,0,-0.13333333,0,666.66667)" />
      <path
         id="path85"
         d="m 4217.06,1253.53 c -7.52,0 -15.95,1.18 -25.25,3.62 v 0 c -5.5,1.45 -10.94,3.28 -16.36,5.5 v 0 c 12.2,-2.77 23.02,-4.58 32.42,-4.58 14.94,0 26.27,4.57 33.8,17.14 1.62,2.7 2.6,6.14 2.96,10.16 7.25,2.13 11.39,4.2 11.39,4.2 l -3.6,-21.24 c -4.13,-5.22 -9.56,-9.15 -16.23,-11.65 v 0 0 0 c -0.05,-0.02 -0.09,-0.03 -0.13,-0.05 v 0 c -0.02,0 -0.03,-0.01 -0.04,-0.01 v 0 c -0.03,-0.02 -0.07,-0.03 -0.11,-0.04 v 0 c -5.46,-2 -11.75,-3.05 -18.85,-3.05"
         style="fill:#2f2a42;fill-opacity:1;fill-rule:nonzero;stroke:none"
         transform="matrix(0.13333333,0,0,-0.13333333,0,666.66667)" />
      <path
         id="path86"
         d="m 612.621,1930.6 c 16.973,0.96 30.988,9.62 43.02,22.21 l 1.136,1.19 0.047,0.03 c 20.957,22.55 36.031,56.89 50.895,82.74 4.336,7.6 8.707,14.47 13.172,20.1 14.027,17.66 38.527,64.24 59.847,107.15 1.09,2.16 2.149,4.35 3.215,6.49 20.738,41.96 37.688,78.7 37.688,78.7 0,0 -7.864,23.02 -20.438,46.66 -3.859,7.25 -8.172,14.57 -12.844,21.32 -9.351,13.52 -20.152,24.67 -31.675,28.21 -35.938,11.06 -69.235,-12.77 -96.879,-44.95 -27.071,-31.51 -101.563,-164.42 -113.707,-219.6 -0.258,-1.17 -0.496,-2.31 -0.688,-3.44 -12.621,-69.37 11.043,-150.04 67.211,-146.81"
         style="fill:#a3a2c0;fill-opacity:1;fill-rule:nonzero;stroke:none"
         transform="matrix(0.13333333,0,0,-0.13333333,0,666.66667)" />
      <path
         id="path87"
         d="m 612.621,1930.6 c 17.52,1 31.871,10.16 44.156,23.4 -39.097,-18.73 -62.918,-7.4 -76.629,8.11 -17.14,19.38 -23.589,72.6 -19.117,95.08 10.891,54.72 51.403,140.53 72.004,174.69 20.602,34.16 61.457,90.52 101.156,96.04 22.727,3.15 41.922,-4.01 54.168,-10.73 -9.351,13.52 -20.152,24.67 -31.675,28.21 -35.938,11.06 -69.235,-12.77 -96.879,-44.95 -27.645,-32.19 -104.766,-170.16 -114.395,-223.04 -12.621,-69.37 11.043,-150.04 67.211,-146.81"
         style="fill:#2f2a42;fill-opacity:1;fill-rule:nonzero;stroke:none"
         transform="matrix(0.13333333,0,0,-0.13333333,0,666.66667)" />
      <path
         id="path88"
         d="m 612.621,1930.6 c 5.875,0.33 11.395,1.59 16.598,3.6 -5.207,-2.02 -10.723,-3.27 -16.598,-3.6 m 16.645,3.62 c 0.027,0.01 0.054,0.02 0.078,0.03 -0.028,-0.01 -0.051,-0.02 -0.078,-0.03 m -9.938,10.03 c -17.922,0 -30.555,8.1 -39.18,17.86 -7.902,8.94 -13.531,25.06 -16.867,42.05 5.977,-11.39 17.184,-17.87 39.817,-17.87 0.367,0 0.742,0.01 1.117,0.01 54.191,0.47 69.41,55.63 98.359,113.73 19.242,38.62 39.305,62.75 48.723,72.95 -2.934,-8.56 -5.938,-18.2 -9.109,-29.19 0,0 -12.653,-21.96 5.894,-35.75 0.973,-0.73 1.875,-1.42 2.707,-2.09 -11.598,-21.4 -22.289,-39.5 -29.898,-49.08 -4.465,-5.63 -8.836,-12.5 -13.172,-20.1 -14.864,-25.85 -29.938,-60.19 -50.895,-82.74 l -0.047,-0.03 c -14.496,-6.94 -26.89,-9.75 -37.449,-9.75 m -73.918,133.16 c 0.192,1.13 0.43,2.27 0.688,3.44 0.004,0 0.004,0 0.007,0 -0.261,-1.18 -0.492,-2.33 -0.695,-3.44"
         style="fill:#878ba8;fill-opacity:1;fill-rule:nonzero;stroke:none"
         transform="matrix(0.13333333,0,0,-0.13333333,0,666.66667)" />
      <path
         id="path89"
         d="m 609.387,1930.5 c -44.211,0.01 -67.305,53.21 -67.289,109.91 0.004,12.34 1.101,24.85 3.312,37 v 0 c 0.203,1.11 0.434,2.26 0.695,3.44 0.54,0.22 1.051,0.33 1.536,0.33 2.359,0 4.05,-2.62 4.898,-8.54 4.117,-29.14 2.734,-53.22 10.742,-68.48 3.336,-16.99 8.965,-33.11 16.867,-42.05 8.625,-9.76 21.258,-17.86 39.18,-17.86 10.559,0 22.953,2.81 37.449,9.75 v 0 0 l -1.136,-1.19 c -7.836,-8.2 -16.512,-14.73 -26.297,-18.56 v 0 c -0.024,-0.01 -0.051,-0.02 -0.078,-0.03 v 0 c -0.016,0 -0.032,-0.01 -0.047,-0.02 v 0 c -5.203,-2.01 -10.723,-3.27 -16.598,-3.6 v 0 c -1.094,-0.07 -2.168,-0.1 -3.234,-0.1"
         style="fill:#2f2a42;fill-opacity:1;fill-rule:nonzero;stroke:none"
         transform="matrix(0.13333333,0,0,-0.13333333,0,666.66667)" />
      <path
         id="path90"
         d="m 1509.54,1444.36 c 0.6,-30.04 24.21,-228.83 89.01,-269.05 32.73,-20.3 51.52,-19.51 60.93,-4.33 5.41,8.66 7.76,22 7.89,38.76 0.12,11.99 -0.9,25.76 -2.74,40.79 -8.88,72.88 -9.96,241.61 54.13,278.23 0,0 -11.74,87.06 -41.73,140.69 -8.99,16.17 -19.69,29.3 -32.22,36.11 0,0 -44.73,-0.27 -72.87,-4.08 -12.16,-1.65 -28.55,-1.11 -43.9,-5.28 -20.17,-5.52 -38.57,-19.12 -43.33,-56.48 -8.41,-65.83 24.21,-165.33 24.83,-195.36"
         style="fill:#a3a2c0;fill-opacity:1;fill-rule:nonzero;stroke:none"
         transform="matrix(0.13333333,0,0,-0.13333333,0,666.66667)" />
      <path
         id="path91"
         d="m 1509.54,1444.36 c 0.6,-30.04 24.21,-228.83 89.01,-269.05 32.73,-20.3 51.52,-19.51 60.93,-4.33 -16.55,-0.7 -39.4,4.79 -59.89,22.39 -28.16,24.19 -63.57,160.65 -61.49,204.69 2.1,44.03 -16.08,124.14 -32.02,185.61 -12.08,46.52 10.37,92.79 21.96,112.53 -20.17,-5.52 -38.57,-19.12 -43.33,-56.48 -8.41,-65.83 24.21,-165.33 24.83,-195.36"
         style="fill:#2f2a42;fill-opacity:1;fill-rule:nonzero;stroke:none"
         transform="matrix(0.13333333,0,0,-0.13333333,0,666.66667)" />
      <path
         id="path92"
         d="m 1656.71,1170.92 c -16.27,0 -37.75,5.81 -57.12,22.45 -28.16,24.19 -63.57,160.65 -61.49,204.69 2.1,44.03 -16.08,124.14 -32.02,185.61 -12.08,46.52 10.37,92.79 21.96,112.53 v 0 c 15.35,4.17 31.74,3.63 43.9,5.28 28.14,3.81 72.87,4.08 72.87,4.08 v 0 0 c -0.19,-14.73 0.89,-29.02 3.24,-42.96 -27.94,-0.7 -70.34,-7.22 -87.38,-38.44 -26.42,-48.39 19.53,-108.84 14.08,-185.71 -5.46,-76.89 2.11,-193.32 40.08,-214.67 17.58,-9.88 33.16,-14.81 45.03,-14.81 2.7,0 5.21,0.25 7.51,0.77 -0.13,-16.76 -2.48,-30.1 -7.89,-38.76 v 0 c -0.91,-0.04 -1.83,-0.06 -2.77,-0.06"
         style="fill:#878ba8;fill-opacity:1;fill-rule:nonzero;stroke:none"
         transform="matrix(0.13333333,0,0,-0.13333333,0,666.66667)" />
      <path
         id="path93"
         d="m 1639.24,1159.81 c -10.16,0 -23.5,4.84 -40.69,15.5 -64.8,40.22 -88.41,239.01 -89.01,269.05 -0.55,26.6 -26.2,107.7 -26.22,171.63 0,8.24 0.43,16.21 1.39,23.73 4.76,37.36 23.16,50.96 43.33,56.48 -11.59,-19.74 -34.04,-66.01 -21.96,-112.53 15.94,-61.47 34.12,-141.58 32.02,-185.61 -2.08,-44.04 33.33,-180.5 61.49,-204.69 19.37,-16.64 40.85,-22.45 57.12,-22.45 0.94,0 1.86,0.02 2.77,0.06 v 0 c -4.47,-7.21 -11.05,-11.17 -20.24,-11.17"
         style="fill:#2f2a42;fill-opacity:1;fill-rule:nonzero;stroke:none"
         transform="matrix(0.13333333,0,0,-0.13333333,0,666.66667)" />
      <path
         id="path94"
         d="m 1515.16,3550.95 c 0,0 -390.15,-10.57 -464.58,-190.29 -74.432,-179.71 160.15,-694.38 286.5,-756.14 126.36,-61.77 304.62,13.64 365.01,77.35 60.39,63.71 -40.04,814.85 -186.93,869.08"
         style="fill:#2f2a42;fill-opacity:1;fill-rule:nonzero;stroke:none"
         transform="matrix(0.13333333,0,0,-0.13333333,0,666.66667)" />
      <path
         id="path95"
         d="m 1271.59,3072.1 c 0,0 -0.59,-72.56 -30.3,-151.51 0,0 -8.74,-52.66 -22.34,-117.93 l 0.01,-0.04 c -16.01,-76.87 -31.58,-133.41 -54.63,-180.14 -19.42,-39.35 -33.47,-77.08 -43.06,-106.52 -1.17,-3.58 -2.26,-7.03 -3.28,-10.33 l -0.01,-0.02 c -9.14,-29.45 -13.2,-48.3 -13.2,-48.3 l -85.58,28.52 c 0,0 -5.33,90.16 -3.77,139.27 1.91,60.86 -4.45,179.81 34.46,278.35 l -0.01,0.01 c 3.11,7.85 6.47,15.05 10.11,21.47 0,0 10.96,97.14 26.79,161.3 5.26,21.26 11.03,38.88 17.14,48.16 0,0 126.72,13.26 167.67,-62.29"
         style="fill:#f39c72;fill-opacity:1;fill-rule:nonzero;stroke:none"
         transform="matrix(0.13333333,0,0,-0.13333333,0,666.66667)" />
      <path
         id="path96"
         d="m 1115.3,2916.08 c 0,0 -49.82,-0.52 -65.41,-12.63 l -0.01,0.01 c 3.11,7.85 6.47,15.05 10.11,21.47 0,0 38.27,2.25 55.31,-8.85"
         style="fill:#ec7857;fill-opacity:1;fill-rule:nonzero;stroke:none"
         transform="matrix(0.13333333,0,0,-0.13333333,0,666.66667)" />
      <path
         id="path97"
         d="m 1271.59,3072.1 c 0,0 -0.59,-72.56 -30.3,-151.51 0,0 -8.74,-52.66 -22.34,-117.93 5.26,49.13 1.58,137.3 2.59,201.62 0.69,43.92 -38.84,54.22 -73.39,66.62 -14.38,5.16 -42.6,10.51 -59.26,16 l -2.11,-0.67 c 5.26,21.26 11.03,38.88 17.14,48.16 0,0 126.72,13.26 167.67,-62.29"
         style="fill:#ec7857;fill-opacity:1;fill-rule:nonzero;stroke:none"
         transform="matrix(0.13333333,0,0,-0.13333333,0,666.66667)" />
      <path
         id="path98"
         d="m 1092.13,2523.96 82,-58.15 c 8.68,-6.15 13.91,-16.07 14.09,-26.71 l 1.35,-78.98 c 0.15,-9.42 -7.35,-17.17 -16.76,-17.31 -7.88,-0.12 -14.82,5.19 -16.76,12.82 l -18.89,74.45 -19.35,7.07 12.14,-44.44 14.94,-40.3 37.38,-46.76 c 5.43,-6.79 4.08,-16.76 -2.97,-21.86 -6.16,-4.46 -14.66,-3.7 -19.92,1.78 l -49.25,51.17 -32.96,40.44 25.95,-50.78 50.02,-74.69 c 3.31,-4.95 3.3,-11.41 -0.04,-16.33 -5.14,-7.59 -15.91,-8.62 -22.4,-2.17 l -54.21,53.89 -30.82,48.05 27.08,-84.74 23.99,-54.22 c 2.65,-5.98 0.5,-13.01 -5.07,-16.47 -6.17,-3.85 -14.3,-1.95 -18.13,4.24 l -34.81,56.31 -25.15,65.33 16.21,-56.25 8.91,-19.18 c 1.85,-4.01 0.12,-8.75 -3.88,-10.61 -3.47,-1.61 -7.59,-0.54 -9.83,2.56 l -13.29,18.36 -19.743,46.57 27.623,199.6 c 0,0 11.5,27.37 72.55,37.31"
         style="fill:#f39c72;fill-opacity:1;fill-rule:nonzero;stroke:none"
         transform="matrix(0.13333333,0,0,-0.13333333,0,666.66667)" />
      <path
         id="path99"
         d="m 1117.98,2505.61 c 0,0 -25.26,15.07 -55.01,11.28 0,0 31.99,12.07 58.3,-0.93 l -3.29,-10.35"
         style="fill:#ec7857;fill-opacity:1;fill-rule:nonzero;stroke:none"
         transform="matrix(0.13333333,0,0,-0.13333333,0,666.66667)" />
      <path
         id="path100"
         d="m 1899.28,3702.76 c 87.26,172.08 51.76,398.09 45.56,455.24 -0.54,5.01 -2.74,11.98 -6.35,20.5 l -0.01,0.04 c -33.08,78.6 -182.89,290.55 -217,338.42 -2.31,3.25 -4.1,5.72 -5.29,7.36 -1.07,1.54 -1.64,2.32 -1.64,2.32 l -105.11,-48.94 c 0,0 70.66,-73.89 98.44,-166.64 27.77,-92.74 94.24,-214.3 94.24,-214.3 -29.26,-107.58 -31.46,-248.33 -31.46,-248.33 50.82,-119.29 128.62,-145.67 128.62,-145.67"
         style="fill:#f39c72;fill-opacity:1;fill-rule:nonzero;stroke:none"
         transform="matrix(0.13333333,0,0,-0.13333333,0,666.66667)" />
      <path
         id="path101"
         d="m 1899.28,3702.76 c 87.26,172.08 51.76,398.09 45.56,455.24 -0.54,5.01 -2.74,11.98 -6.35,20.5 -0.06,-2.84 -2.58,-184.81 -14.43,-243.6 -11.95,-59.25 -31,-121.46 -65.55,-129.79 -34.58,-8.32 -69.14,11.3 -87.85,43.32 50.82,-119.29 128.62,-145.67 128.62,-145.67"
         style="fill:#ec7857;fill-opacity:1;fill-rule:nonzero;stroke:none"
         transform="matrix(0.13333333,0,0,-0.13333333,0,666.66667)" />
      <path
         id="path102"
         d="m 1714.25,4518.2 c -14.06,-14.91 -75.13,-56.31 -84.04,-60.29 -3.11,-1.37 -7.3,0.6 -11.42,3.75 -4.08,-0.1 -30.94,-0.52 -45.5,6.5 -8,3.88 -7.6,15.32 -5.2,27.39 -19.33,5.18 -56.47,35.81 -55.24,64.04 1.34,30.76 34.45,32.21 34.45,32.21 1.45,35.32 34.93,28.78 34.93,28.78 2.1,15.34 30.19,21.49 30.19,21.49 3.18,13.03 21.47,14.86 32.17,9.45 10.7,-5.39 73.23,-81.66 75.74,-95.41 2.51,-13.75 -6.08,-37.91 -6.08,-37.91"
         style="fill:#f39c72;fill-opacity:1;fill-rule:nonzero;stroke:none"
         transform="matrix(0.13333333,0,0,-0.13333333,0,666.66667)" />
      <path
         id="path103"
         d="m 1618.39,4511.33 c 4.23,-17.78 -10.68,-19.69 -10.68,-19.69 3.06,2.23 3.02,9.78 2.34,16.29 0,0 -0.01,4.43 -1.51,9.76 l -0.02,0.05 c -1.66,5.81 -5.16,12.69 -12.48,16.21 -13.19,6.28 -19.34,2.37 -19.34,2.37 l -25.59,36.57 c 13.47,-8.6 31.22,-28.73 31.22,-28.73 23.57,0.38 31.94,-17.19 34.75,-26.77 4.64,0.25 9.82,2.12 11.83,8.5 4.01,12.75 -4.21,25.34 -4.21,25.34 l -35.54,49.79 c 0,0 48.97,-47.98 49.66,-66.25 0.9,-24.24 -20.43,-23.44 -20.43,-23.44"
         style="fill:#ec7857;fill-opacity:1;fill-rule:nonzero;stroke:none"
         transform="matrix(0.13333333,0,0,-0.13333333,0,666.66667)" />
      <path
         id="path104"
         d="m 1626.3,4615.49 c 0,0 31.82,-39.98 35.9,-50.8 4.45,-11.8 -3.25,-23.3 -11.86,-25.36 -8.61,-2.06 -13.37,2.42 -13.37,2.42 l -0.28,-12.34 c 0,0 33.02,-5.96 33.48,25.51 0.22,15.73 -43.87,60.57 -43.87,60.57"
         style="fill:#ec7857;fill-opacity:1;fill-rule:nonzero;stroke:none"
         transform="matrix(0.13333333,0,0,-0.13333333,0,666.66667)" />
      <path
         id="path105"
         d="m 1668.25,4562.23 c 0,0 7.84,-7.86 17.6,-4.97 9.78,2.89 11.93,9.4 9.8,15.44 0,0 5.75,-5.94 0.5,-14.27 -6.83,-10.86 -23.07,-8.47 -28.17,-6.99 l 0.27,10.79"
         style="fill:#ec7857;fill-opacity:1;fill-rule:nonzero;stroke:none"
         transform="matrix(0.13333333,0,0,-0.13333333,0,666.66667)" />
      <path
         id="path106"
         d="m 1701.65,4503.9 c 0,0 11.99,2.17 19.83,13.06 -2.31,3.25 -4.1,5.72 -5.29,7.36 0,0 -4.77,-10.43 -14.54,-20.42"
         style="fill:#ec7857;fill-opacity:1;fill-rule:nonzero;stroke:none"
         transform="matrix(0.13333333,0,0,-0.13333333,0,666.66667)" />
      <path
         id="path107"
         d="m 1626.81,4457.57 c 0,0 15.36,1.3 24.08,6.8 0,0 -8.1,-10.6 -19.03,-13.14 l -5.05,6.34"
         style="fill:#ec7857;fill-opacity:1;fill-rule:nonzero;stroke:none"
         transform="matrix(0.13333333,0,0,-0.13333333,0,666.66667)" />
      <path
         id="path108"
         d="m 1802.12,4096.76 c 0,0 46,6.99 61.66,20.05 0,0 -16.76,-39.55 -66.93,-41.02 l 5.27,20.97"
         style="fill:#ec7857;fill-opacity:1;fill-rule:nonzero;stroke:none"
         transform="matrix(0.13333333,0,0,-0.13333333,0,666.66667)" />
      <path
         id="path109"
         d="m 748.082,2108.04 c 18.543,-13.79 10.008,-16.95 28.309,-26.84 17.726,-9.59 64.261,-47.7 67.148,-50.07 l 0.137,-0.11 c 121.66,-129.18 326.734,-330.21 437.864,-345.48 104.76,-14.4 260.88,279.44 360.61,495.14 l 0.02,0.03 c 1.06,1.58 41.72,61.53 102.45,43.87 61.53,-17.9 288.27,-230.72 392.63,-284.57 0,0 -139.86,-7.16 -185.56,-65.78 -45.7,-58.62 -173.08,-114.66 -196.19,-123.94 -23.12,-9.27 -35.19,1.1 -56.68,-13.06 -21.49,-14.17 -54.01,-31.67 -54.01,-31.67 -0.87,-65.3 23.49,-121.82 71.15,-178.52 0,0 19.87,10.73 38.92,16.37 26.48,7.82 82.28,22.53 92.18,40.83 9.89,18.3 354.58,90.81 354.58,90.81 0,0 264.79,52.48 285.35,178.14 20.56,125.67 -517.08,690.38 -517.08,690.38 l -41.6,181.09 -194.08,-32.11 -0.01,0.08 -354.23,-26.84 c 0,0 -60.58,-162.84 -77.65,-309.7 -11.43,-98.29 -76.46,-331.82 -76.46,-331.82 0,0 -59.93,61.61 -176.53,111.49 -29.8,12.76 -60.518,26.67 -89.733,40.31 l 0.028,0.02 c 0,0 -44.207,22.2 -59.618,43.6 -15.41,21.39 -24.812,13.16 -41.488,18.16 -16.68,5.01 -30.746,25.26 -41.867,23.16 -11.125,-2.1 -14.422,-7.56 -14.422,-7.56 -28.371,-26.74 -41.195,-44.3 -60.062,-109.66 0,0 -12.653,-21.96 5.894,-35.75"
         style="fill:#2f2a42;fill-opacity:1;fill-rule:nonzero;stroke:none"
         transform="matrix(0.13333333,0,0,-0.13333333,0,666.66667)" />
      <path
         id="path110"
         d="m 1064.95,2071.21 -4.05,-6.32 c 8.27,-5.28 17.15,-11.49 26.43,-18.45 l 4.51,5.99 c -9.43,7.07 -18.48,13.4 -26.89,18.78"
         style="fill:#52526b;fill-opacity:1;fill-rule:nonzero;stroke:none"
         transform="matrix(0.13333333,0,0,-0.13333333,0,666.66667)" />
      <path
         id="path111"
         d="m 1016.29,2097.55 -3.51,-6.63 c 8.01,-4.24 15.72,-8.17 22.93,-11.69 2,-0.98 4.02,-2 6.05,-3.08 l 3.51,6.62 c -2.1,1.12 -4.2,2.19 -6.27,3.21 -7.14,3.47 -14.78,7.37 -22.71,11.57"
         style="fill:#52526b;fill-opacity:1;fill-rule:nonzero;stroke:none"
         transform="matrix(0.13333333,0,0,-0.13333333,0,666.66667)" />
      <path
         id="path112"
         d="m 964.613,2117.89 c 9.625,-5.65 19.149,-11.1 28.313,-16.2 l 3.64,6.56 c -9.109,5.06 -18.582,10.48 -28.148,16.11 l -3.805,-6.47"
         style="fill:#52526b;fill-opacity:1;fill-rule:nonzero;stroke:none"
         transform="matrix(0.13333333,0,0,-0.13333333,0,666.66667)" />
      <path
         id="path113"
         d="m 1104.99,2032.67 c 7.8,-6.3 15.92,-13.11 24.83,-20.8 l 4.91,5.66 c -8.97,7.76 -17.16,14.62 -25.04,20.98 l -4.7,-5.84"
         style="fill:#52526b;fill-opacity:1;fill-rule:nonzero;stroke:none"
         transform="matrix(0.13333333,0,0,-0.13333333,0,666.66667)" />
      <path
         id="path114"
         d="m 1192.65,1965.86 -4.95,-5.64 c 10.74,-9.43 17.83,-15.13 22.98,-18.46 1.18,-0.76 2.38,-1.43 3.58,-1.99 l 3.18,6.79 -2.68,1.5 c -4.84,3.12 -11.65,8.61 -22.11,17.8"
         style="fill:#52526b;fill-opacity:1;fill-rule:nonzero;stroke:none"
         transform="matrix(0.13333333,0,0,-0.13333333,0,666.66667)" />
      <path
         id="path115"
         d="m 1235.52,1947.86 3.65,-6.55 c 7.91,4.39 15.94,12.5 23.87,24.09 l -6.18,4.24 c -7.28,-10.63 -14.45,-17.95 -21.34,-21.78"
         style="fill:#52526b;fill-opacity:1;fill-rule:nonzero;stroke:none"
         transform="matrix(0.13333333,0,0,-0.13333333,0,666.66667)" />
      <path
         id="path116"
         d="m 1151.69,2002.63 -4.99,-5.6 c 7.09,-6.32 13.88,-12.45 20.26,-18.22 l 3.9,-3.53 5.03,5.57 -3.9,3.52 c -6.4,5.79 -13.2,11.94 -20.3,18.26"
         style="fill:#52526b;fill-opacity:1;fill-rule:nonzero;stroke:none"
         transform="matrix(0.13333333,0,0,-0.13333333,0,666.66667)" />
      <path
         id="path117"
         d="m 917.574,2146.74 c 8.914,-5.7 18.223,-11.52 27.668,-17.26 l 3.903,6.41 c -9.399,5.72 -18.661,11.49 -27.528,17.17 l -4.043,-6.32"
         style="fill:#52526b;fill-opacity:1;fill-rule:nonzero;stroke:none"
         transform="matrix(0.13333333,0,0,-0.13333333,0,666.66667)" />
      <path
         id="path118"
         d="m 787.719,2224.79 c -1.903,-2.23 -3.774,-4.48 -5.594,-6.77 5.859,-0.81 14.453,-2.2 23.813,-4.4 l 1.707,7.31 c -7.469,1.75 -14.387,3 -19.926,3.86"
         style="fill:#52526b;fill-opacity:1;fill-rule:nonzero;stroke:none"
         transform="matrix(0.13333333,0,0,-0.13333333,0,666.66667)" />
      <path
         id="path119"
         d="m 829.688,2214.44 -2.586,-7.04 c 11.007,-4.05 19.421,-8.76 25.003,-13.97 l 1.696,-1.55 4.988,5.6 -1.562,1.43 c -6.313,5.9 -15.582,11.13 -27.539,15.53"
         style="fill:#52526b;fill-opacity:1;fill-rule:nonzero;stroke:none"
         transform="matrix(0.13333333,0,0,-0.13333333,0,666.66667)" />
      <path
         id="path120"
         d="m 876.211,2183.78 -4.426,-6.06 c 7.613,-5.55 16.656,-11.83 26.867,-18.64 l 4.161,6.24 c -10.122,6.75 -19.075,12.96 -26.602,18.46"
         style="fill:#52526b;fill-opacity:1;fill-rule:nonzero;stroke:none"
         transform="matrix(0.13333333,0,0,-0.13333333,0,666.66667)" />
      <path
         id="path121"
         d="m 1368.56,2415.21 7.25,-1.91 c 2.76,10.48 5.57,20.98 8.42,31.43 l -7.24,1.97 c -2.85,-10.48 -5.67,-20.99 -8.43,-31.49"
         style="fill:#52526b;fill-opacity:1;fill-rule:nonzero;stroke:none"
         transform="matrix(0.13333333,0,0,-0.13333333,0,666.66667)" />
      <path
         id="path122"
         d="m 1382.99,2468.45 7.22,-2.02 c 2.94,10.53 5.91,20.98 8.87,31.29 l -7.2,2.07 c -2.98,-10.32 -5.95,-20.79 -8.89,-31.34"
         style="fill:#52526b;fill-opacity:1;fill-rule:nonzero;stroke:none"
         transform="matrix(0.13333333,0,0,-0.13333333,0,666.66667)" />
      <path
         id="path123"
         d="m 1342.38,2308.08 7.32,-1.63 c 2.27,10.23 4.72,20.88 7.28,31.67 l -7.3,1.73 c -2.57,-10.82 -5.02,-21.51 -7.3,-31.77"
         style="fill:#52526b;fill-opacity:1;fill-rule:nonzero;stroke:none"
         transform="matrix(0.13333333,0,0,-0.13333333,0,666.66667)" />
      <path
         id="path124"
         d="m 1354.97,2361.8 7.28,-1.79 c 2.51,10.22 5.17,20.84 7.92,31.53 l -7.27,1.87 c -2.75,-10.72 -5.41,-21.36 -7.93,-31.61"
         style="fill:#52526b;fill-opacity:1;fill-rule:nonzero;stroke:none"
         transform="matrix(0.13333333,0,0,-0.13333333,0,666.66667)" />
      <path
         id="path125"
         d="m 1398.18,2521.45 7.2,-2.11 c 3.12,10.61 6.24,21.02 9.33,31.15 l -7.18,2.19 c -3.09,-10.16 -6.22,-20.58 -9.35,-31.23"
         style="fill:#52526b;fill-opacity:1;fill-rule:nonzero;stroke:none"
         transform="matrix(0.13333333,0,0,-0.13333333,0,666.66667)" />
      <path
         id="path126"
         d="m 1268.09,1988.6 6.65,-3.46 c 4.63,8.88 9.2,18.96 13.58,29.96 l -6.97,2.77 c -4.28,-10.76 -8.75,-20.6 -13.26,-29.27"
         style="fill:#52526b;fill-opacity:1;fill-rule:nonzero;stroke:none"
         transform="matrix(0.13333333,0,0,-0.13333333,0,666.66667)" />
      <path
         id="path127"
         d="m 1431.2,2626.76 7.1,-2.4 c 3.78,11.19 7.39,21.5 10.73,30.65 l -7.05,2.57 c -3.35,-9.21 -6.98,-19.58 -10.78,-30.82"
         style="fill:#52526b;fill-opacity:1;fill-rule:nonzero;stroke:none"
         transform="matrix(0.13333333,0,0,-0.13333333,0,666.66667)" />
      <path
         id="path128"
         d="m 1414.18,2574.25 7.16,-2.24 c 3.34,10.71 6.67,21.13 9.88,30.98 l -7.13,2.32 c -3.23,-9.87 -6.56,-20.33 -9.91,-31.06"
         style="fill:#52526b;fill-opacity:1;fill-rule:nonzero;stroke:none"
         transform="matrix(0.13333333,0,0,-0.13333333,0,666.66667)" />
      <path
         id="path129"
         d="m 1289.08,2038.82 7.09,-2.43 c 3.4,9.91 6.66,20.43 9.7,31.26 l -7.22,2.03 c -3.01,-10.7 -6.22,-21.08 -9.57,-30.86"
         style="fill:#52526b;fill-opacity:1;fill-rule:nonzero;stroke:none"
         transform="matrix(0.13333333,0,0,-0.13333333,0,666.66667)" />
      <path
         id="path130"
         d="m 1331.2,2253.99 7.37,-1.38 c 1.87,9.96 4.02,20.67 6.37,31.85 l -7.34,1.55 c -2.37,-11.23 -4.51,-22.01 -6.4,-32.02"
         style="fill:#52526b;fill-opacity:1;fill-rule:nonzero;stroke:none"
         transform="matrix(0.13333333,0,0,-0.13333333,0,666.66667)" />
      <path
         id="path131"
         d="m 1304.33,2091.33 7.28,-1.79 c 2.56,10.42 4.93,21.15 7.06,31.92 l -7.36,1.45 c -2.11,-10.64 -4.46,-21.27 -6.98,-31.58"
         style="fill:#52526b;fill-opacity:1;fill-rule:nonzero;stroke:none"
         transform="matrix(0.13333333,0,0,-0.13333333,0,666.66667)" />
      <path
         id="path132"
         d="m 1315.34,2144.95 7.39,-1.24 c 1.81,10.75 3.39,21.63 4.71,32.34 l -7.44,0.92 c -1.31,-10.6 -2.88,-21.37 -4.66,-32.02"
         style="fill:#52526b;fill-opacity:1;fill-rule:nonzero;stroke:none"
         transform="matrix(0.13333333,0,0,-0.13333333,0,666.66667)" />
      <path
         id="path133"
         d="m 1322.51,2199.34 7.45,-0.89 c 1.15,9.57 2.72,20.35 4.67,32.04 l -7.39,1.24 c -1.98,-11.81 -3.56,-22.71 -4.73,-32.39"
         style="fill:#52526b;fill-opacity:1;fill-rule:nonzero;stroke:none"
         transform="matrix(0.13333333,0,0,-0.13333333,0,666.66667)" />
      <path
         id="path134"
         d="m 1780.52,2261.53 c -11.15,0.29 -22.38,-1.29 -33.24,-4.65 l 2.21,-7.15 c 10.09,3.11 20.5,4.57 30.84,4.3 l 0.19,7.5"
         style="fill:#52526b;fill-opacity:1;fill-rule:nonzero;stroke:none"
         transform="matrix(0.13333333,0,0,-0.13333333,0,666.66667)" />
      <path
         id="path135"
         d="m 1830.85,2239.29 3.71,6.52 c -2.98,1.69 -5.82,3.17 -8.45,4.41 -7.45,3.52 -15.03,6.25 -22.54,8.13 l -1.81,-7.28 c 7.03,-1.75 14.14,-4.32 21.15,-7.62 2.45,-1.16 5.13,-2.56 7.94,-4.16"
         style="fill:#52526b;fill-opacity:1;fill-rule:nonzero;stroke:none"
         transform="matrix(0.13333333,0,0,-0.13333333,0,666.66667)" />
      <path
         id="path136"
         d="m 1850.31,1759.73 3.34,-6.72 c 9.78,4.86 19.56,9.85 29.07,14.84 l -3.48,6.64 c -9.46,-4.96 -19.2,-9.93 -28.93,-14.76"
         style="fill:#52526b;fill-opacity:1;fill-rule:nonzero;stroke:none"
         transform="matrix(0.13333333,0,0,-0.13333333,0,666.66667)" />
      <path
         id="path137"
         d="m 1899.06,1785.1 3.59,-6.58 c 10.11,5.51 19.68,10.91 28.44,16.05 l -3.79,6.47 c -8.7,-5.1 -18.2,-10.46 -28.24,-15.94"
         style="fill:#52526b;fill-opacity:1;fill-rule:nonzero;stroke:none"
         transform="matrix(0.13333333,0,0,-0.13333333,0,666.66667)" />
      <path
         id="path138"
         d="m 1946.45,1812.68 4.01,-6.34 c 11.24,7.11 20.34,13.45 27.05,18.85 l -4.71,5.84 c -6.48,-5.22 -15.35,-11.4 -26.35,-18.35"
         style="fill:#52526b;fill-opacity:1;fill-rule:nonzero;stroke:none"
         transform="matrix(0.13333333,0,0,-0.13333333,0,666.66667)" />
      <path
         id="path139"
         d="m 1662.72,1665.02 c 6.75,4.68 13.33,9.01 19.65,12.93 l -3.96,6.37 c -5.56,-3.45 -11.34,-7.25 -17.24,-11.28 0.5,-2.68 1.02,-5.35 1.55,-8.02"
         style="fill:#52526b;fill-opacity:1;fill-rule:nonzero;stroke:none"
         transform="matrix(0.13333333,0,0,-0.13333333,0,666.66667)" />
      <path
         id="path140"
         d="m 1698.15,1695.69 3.51,-6.62 c 10.84,5.73 20.66,9.94 29.19,12.51 l -2.16,7.18 c -9,-2.71 -19.28,-7.1 -30.54,-13.07"
         style="fill:#52526b;fill-opacity:1;fill-rule:nonzero;stroke:none"
         transform="matrix(0.13333333,0,0,-0.13333333,0,666.66667)" />
      <path
         id="path141"
         d="m 1892.76,2193.69 c 7.58,-6.32 15.9,-13.41 24.71,-21.06 l 4.92,5.65 c -8.85,7.7 -17.2,14.83 -24.83,21.17 l -4.8,-5.76"
         style="fill:#52526b;fill-opacity:1;fill-rule:nonzero;stroke:none"
         transform="matrix(0.13333333,0,0,-0.13333333,0,666.66667)" />
      <path
         id="path142"
         d="m 1750.06,1715.26 2.51,-7.06 c 8.64,3.07 18.89,7.13 30.49,12.04 l -2.93,6.91 c -11.46,-4.86 -21.58,-8.86 -30.07,-11.89"
         style="fill:#52526b;fill-opacity:1;fill-rule:nonzero;stroke:none"
         transform="matrix(0.13333333,0,0,-0.13333333,0,666.66667)" />
      <path
         id="path143"
         d="m 1800.69,1736.16 3.08,-6.83 c 9.51,4.27 19.47,8.91 29.59,13.77 l -3.24,6.76 c -10.07,-4.83 -19.97,-9.44 -29.43,-13.7"
         style="fill:#52526b;fill-opacity:1;fill-rule:nonzero;stroke:none"
         transform="matrix(0.13333333,0,0,-0.13333333,0,666.66667)" />
      <path
         id="path144"
         d="m 1721.44,2236.31 c 2.46,1.63 5.15,3.28 8.08,4.89 l -3.61,6.57 c -5.28,-2.91 -9.86,-5.92 -13.66,-8.73 3.05,-0.93 6.11,-1.85 9.19,-2.73"
         style="fill:#52526b;fill-opacity:1;fill-rule:nonzero;stroke:none"
         transform="matrix(0.13333333,0,0,-0.13333333,0,666.66667)" />
      <path
         id="path145"
         d="m 1853.82,2233.46 -4.3,-6.15 c 7.65,-5.36 16.34,-11.89 25.83,-19.43 l 4.67,5.87 c -9.61,7.64 -18.42,14.27 -26.2,19.71"
         style="fill:#52526b;fill-opacity:1;fill-rule:nonzero;stroke:none"
         transform="matrix(0.13333333,0,0,-0.13333333,0,666.66667)" />
      <path
         id="path146"
         d="m 2177.2,1900.49 c -3.59,-2.68 -12.15,-5.83 -26.15,-9.64 l 1.97,-7.24 c 15.34,4.17 24.18,7.52 28.66,10.86 0.92,0.69 1.82,1.41 2.7,2.18 l -4.95,5.64 -2.23,-1.8"
         style="fill:#52526b;fill-opacity:1;fill-rule:nonzero;stroke:none"
         transform="matrix(0.13333333,0,0,-0.13333333,0,666.66667)" />
      <path
         id="path147"
         d="m 2104.07,2017.36 -4.69,-5.85 c 10.03,-8.05 18.61,-14.51 26.22,-19.75 l 4.25,6.18 c -7.46,5.14 -15.89,11.48 -25.78,19.42"
         style="fill:#52526b;fill-opacity:1;fill-rule:nonzero;stroke:none"
         transform="matrix(0.13333333,0,0,-0.13333333,0,666.66667)" />
      <path
         id="path148"
         d="m 2148.89,1986.56 -0.24,0.12 -3.22,-6.78 0.26,-0.12 c 10.56,-4.96 19.48,-10.46 26.52,-16.37 l 4.83,5.75 c -7.55,6.32 -17.02,12.18 -28.15,17.4"
         style="fill:#52526b;fill-opacity:1;fill-rule:nonzero;stroke:none"
         transform="matrix(0.13333333,0,0,-0.13333333,0,666.66667)" />
      <path
         id="path149"
         d="m 2192.58,1951.33 -6.47,-3.8 c 2.51,-4.27 4.17,-8.66 4.95,-13.08 0.92,-5.12 0.65,-10.25 -0.8,-15.22 l 7.21,-2.1 c 1.76,6.09 2.1,12.36 0.98,18.64 -0.94,5.28 -2.91,10.52 -5.87,15.56"
         style="fill:#52526b;fill-opacity:1;fill-rule:nonzero;stroke:none"
         transform="matrix(0.13333333,0,0,-0.13333333,0,666.66667)" />
      <path
         id="path150"
         d="m 2113.23,1881.5 c -5.07,-1.2 -10.29,-2.44 -15.58,-3.72 l 1.75,-7.28 c 5.29,1.27 10.5,2.51 15.56,3.7 5.56,1.33 10.95,2.61 16.1,3.85 l -1.75,7.29 c -5.15,-1.25 -10.53,-2.53 -16.08,-3.84"
         style="fill:#52526b;fill-opacity:1;fill-rule:nonzero;stroke:none"
         transform="matrix(0.13333333,0,0,-0.13333333,0,666.66667)" />
      <path
         id="path151"
         d="m 2044.2,1863.7 2.16,-7.19 c 9.27,2.79 19.49,5.6 31.23,8.6 l -1.86,7.26 c -11.84,-3.02 -22.15,-5.86 -31.53,-8.67"
         style="fill:#52526b;fill-opacity:1;fill-rule:nonzero;stroke:none"
         transform="matrix(0.13333333,0,0,-0.13333333,0,666.66667)" />
      <path
         id="path152"
         d="m 1992.19,1843.77 3.47,-6.65 c 8.05,4.21 17.95,8.41 29.45,12.49 l -2.5,7.07 c -12,-4.27 -21.95,-8.49 -30.42,-12.91"
         style="fill:#52526b;fill-opacity:1;fill-rule:nonzero;stroke:none"
         transform="matrix(0.13333333,0,0,-0.13333333,0,666.66667)" />
      <path
         id="path153"
         d="m 1997.47,2111.02 c -5.7,5.18 -11.42,10.38 -17.13,15.55 l -5.04,-5.55 c 5.72,-5.18 11.43,-10.38 17.13,-15.55 l 6.97,-6.34 5.04,5.56 -6.97,6.33"
         style="fill:#52526b;fill-opacity:1;fill-rule:nonzero;stroke:none"
         transform="matrix(0.13333333,0,0,-0.13333333,0,666.66667)" />
      <path
         id="path154"
         d="m 2016.1,2083.98 c 8.19,-7.41 16.28,-14.7 24.21,-21.78 l 5,5.59 c -7.92,7.07 -16,14.36 -24.18,21.76 l -5.03,-5.57"
         style="fill:#52526b;fill-opacity:1;fill-rule:nonzero;stroke:none"
         transform="matrix(0.13333333,0,0,-0.13333333,0,666.66667)" />
      <path
         id="path155"
         d="m 2086.74,2031.65 c -7.52,6.34 -15.57,13.28 -24.59,21.21 l -4.95,-5.63 c 9.06,-7.96 17.14,-14.94 24.71,-21.32 l 4.83,5.74"
         style="fill:#52526b;fill-opacity:1;fill-rule:nonzero;stroke:none"
         transform="matrix(0.13333333,0,0,-0.13333333,0,666.66667)" />
      <path
         id="path156"
         d="m 1963.63,2141.68 c -8.17,7.35 -16.28,14.63 -24.28,21.71 l -4.97,-5.62 c 7.98,-7.07 16.08,-14.32 24.23,-21.67 l 5.02,5.58"
         style="fill:#52526b;fill-opacity:1;fill-rule:nonzero;stroke:none"
         transform="matrix(0.13333333,0,0,-0.13333333,0,666.66667)" />
      <path
         id="path157"
         d="m 2000.2,2556.3 c 0,0 -355,-115.6 -546.7,-63.8 -14.3,3.9 -130.9,27.5 -130.9,27.5 0,0 65.8,249.8 47.4,415.7 -4.8,44 -15.2,130.8 -46.3,209.6 -11.1,28.2 -22.5,56.9 -33.7,84.8 -33.3,82.6 -64.3,157.9 -78,190.9 28.5,19.7 51.8,24.8 57.2,25.8 l 1.1,0.1 c 31.5,5.3 71.7,13.6 114.6,26.5 h 0.1 c 55.2,16.8 114.9,41.2 166.6,76.8 l 48,26.7 50.4,28.1 c 0,0 62,-22.4 126.4,-114.4 -16.6,-19.7 -34.4,-37.9 -53.5,-53.6 28.4,-17.8 52.1,-26.2 52.1,-26.2 12.3,6.9 23.9,15.4 34.9,25.3 40.8,-75.6 78.2,-183.4 96.5,-335.9 16.5,-138.5 45.6,-300.1 67.1,-411 15.3,-79.5 26.7,-132.9 26.7,-132.9"
         style="fill:#16c47f;fill-opacity:1;fill-rule:nonzero;stroke:none"
         transform="matrix(0.13333333,0,0,-0.13333333,0,666.66667)" />
      <path
         id="path158"
         d="m 1480,3415 c -65.8,5.6 -80.9,37 -95,58.4 55.2,16.8 114.9,41.2 166.6,76.8 l 31.48,17.68 c 9,0 31.23,-16.57 31.23,-49.84 0,-44.71 -46.81,-110.54 -134.31,-103.04"
         style="fill:#2f2a42;fill-opacity:1;fill-rule:nonzero;stroke:none"
         transform="matrix(0.13333333,0,0,-0.13333333,0,666.66667)" />
      <path
         id="path159"
         d="m 1801.27,3206.45 c -66.83,0 -110.74,113.4 -110.74,113.4 l 115.47,51.7 c 0,0 89.76,-134.87 16.58,-161.26 -7.33,-2.64 -14.44,-3.84 -21.31,-3.84"
         style="fill:#0e9c63;fill-opacity:1;fill-rule:nonzero;stroke:none"
         transform="matrix(0.13333333,0,0,-0.13333333,0,666.66667)" />
      <path
         id="path160"
         d="m 1567.18,3877.73 c 0,0 48.48,36.72 28.62,110.43 0,0 -16.28,-27.98 -31.06,-30.77 0,0 37.48,101.45 -77.12,157.96 0,0 13.42,-55.81 -0.21,-74.4 0,0 -30.26,64.57 -75.11,77.88 0,0 6.74,-113.15 -63.4,-136.01 -50.03,-16.31 -114.7,-74.43 -132.53,-169.94 0,0 -29.06,8.39 -39.89,-3.03 0,0 37.25,-6.27 42.39,-30.03 0,0 -15.64,7.92 -27.42,-2.08 0,0 26.32,-5.44 30.39,-26.02 4.06,-20.58 103.7,-177.96 163.79,-204.18 60.09,-26.23 181.55,330.19 181.55,330.19"
         style="fill:#2f2a42;fill-opacity:1;fill-rule:nonzero;stroke:none"
         transform="matrix(0.13333333,0,0,-0.13333333,0,666.66667)" />
      <path
         id="path161"
         d="m 1411.72,3523.66 8.01,-46.16 c 2.04,-11.73 10.7,-21.28 22.23,-24.28 99.41,-25.91 143.23,35.86 148.17,59.79 -12.79,5.11 -240.51,97.23 -277.81,184.56 0,0 24,-117.4 99.4,-173.91"
         style="fill:#f39c72;fill-opacity:1;fill-rule:nonzero;stroke:none"
         transform="matrix(0.13333333,0,0,-0.13333333,0,666.66667)" />
      <path
         id="path162"
         d="m 1595.95,3781.11 c 8.2,-11.4 14.4,-24 18.36,-37.3 3.47,-11.48 5.3,-23.49 5.35,-35.63 l 0.37,-80.73 c 0.14,-30.03 -18.87,-56.82 -47.28,-66.54 -32.56,-11.14 -78.19,-20.6 -124.94,-10.44 -88.21,19.18 -130.41,126.04 -130.41,126.04 0,0 -36.75,110.79 37.23,187.19 51.25,52.92 120.02,63.31 157.45,64.7 16.04,0.59 31.07,-7.77 38.92,-21.78 l 28.34,-50.58 c 2.25,-4.01 4.26,-8.12 6.04,-12.32 5.99,-14.12 9.38,-29.24 9.94,-44.67 l 0.63,-17.94"
         style="fill:#f39c72;fill-opacity:1;fill-rule:nonzero;stroke:none"
         transform="matrix(0.13333333,0,0,-0.13333333,0,666.66667)" />
      <path
         id="path163"
         d="m 1491.21,3832.53 c 0,0 -70.02,29.58 -87.45,-28.62 l 10.78,-8.92 c 0,0 23.22,44.48 78.96,22.1 l -2.29,15.44"
         style="fill:#2f2a42;fill-opacity:1;fill-rule:nonzero;stroke:none"
         transform="matrix(0.13333333,0,0,-0.13333333,0,666.66667)" />
      <path
         id="path164"
         d="m 1595.95,3781.11 c 8.2,-11.4 14.4,-24 18.36,-37.3 -13.88,3.45 -38.26,1.32 -79.92,-21.89 0,0 16.1,28.42 39.49,38.08 6.29,2.59 8.27,10.51 3.95,15.76 l -28.94,35.13 c 0,0 1.58,9.9 10.42,16.85 5.39,4.24 16.62,11.21 26.07,15.98 5.99,-14.12 9.38,-29.24 9.94,-44.67 l 0.63,-17.94"
         style="fill:#ec7857;fill-opacity:1;fill-rule:nonzero;stroke:none"
         transform="matrix(0.13333333,0,0,-0.13333333,0,666.66667)" />
      <path
         id="path165"
         d="m 1578.4,3854.98 c -16.64,-7.82 -28.45,-18.07 -28.45,-18.07 l 3.57,-13.75 c 10.57,8.89 20.76,14.49 30.25,17.83 4.69,1.65 7.14,6.62 5.29,10.65 l -0.07,0.15 c -1.69,3.7 -6.44,5.14 -10.59,3.19"
         style="fill:#2f2a42;fill-opacity:1;fill-rule:nonzero;stroke:none"
         transform="matrix(0.13333333,0,0,-0.13333333,0,666.66667)" />
      <path
         id="path166"
         d="m 1600.42,3710.44 -124.78,-35.75 c 0,0 39.25,-59.53 102.59,-32.8 49.68,20.96 22.19,68.55 22.19,68.55"
         style="fill:#ffffff;fill-opacity:1;fill-rule:nonzero;stroke:none"
         transform="matrix(0.13333333,0,0,-0.13333333,0,666.66667)" />
      <path
         id="path167"
         d="m 1564.78,3560.26 c 0,0 -78.24,-19.94 -159.06,68.22 0,0 -3.58,-45.57 39.8,-92.05 43.39,-46.49 144.61,-23.42 144.61,-23.42 l -25.35,47.25"
         style="fill:#ec7857;fill-opacity:1;fill-rule:nonzero;stroke:none"
         transform="matrix(0.13333333,0,0,-0.13333333,0,666.66667)" />
      <path
         id="path168"
         d="m 1341.47,3706.25 c 0,0 -39.59,34.33 -65.05,1.94 -25.47,-32.38 31.61,-123.78 72.36,-86.49 40.76,37.29 -7.31,84.55 -7.31,84.55"
         style="fill:#f39c72;fill-opacity:1;fill-rule:nonzero;stroke:none"
         transform="matrix(0.13333333,0,0,-0.13333333,0,666.66667)" />
      <path
         id="path169"
         d="m 1491.2,3788.58 c 0,0 -15.45,18.7 -34.71,11.26 -28.08,-10.84 -24.18,-36.66 -24.18,-36.66 0,0 12.54,48.11 58.89,25.4"
         style="fill:#2f2a42;fill-opacity:1;fill-rule:nonzero;stroke:none"
         transform="matrix(0.13333333,0,0,-0.13333333,0,666.66667)" />
      <path
         id="path170"
         d="m 1560.17,3798.32 c 0,0 10.3,30.56 32.7,7.15 0,0 -19.93,12.78 -32.7,-7.15"
         style="fill:#2f2a42;fill-opacity:1;fill-rule:nonzero;stroke:none"
         transform="matrix(0.13333333,0,0,-0.13333333,0,666.66667)" />
      <path
         id="path171"
         d="m 1326.17,3830.61 c 0,0 30.36,-36.71 5.69,-75.04 l 25.55,-58.76 -26.43,-6.79 -21.97,32.6 -16.97,84.24 c 0,0 20.48,38.54 34.13,23.75"
         style="fill:#2f2a42;fill-opacity:1;fill-rule:nonzero;stroke:none"
         transform="matrix(0.13333333,0,0,-0.13333333,0,666.66667)" />
      <path
         id="path172"
         d="m 1968.2,3772.5 c 0,0 -3.2,-16 -9.8,-41.4 -21.5,-82 -79.2,-261.9 -183.4,-320.3 0,0 -23.7,8.4 -52.1,26.2 -43.9,27.5 -98.9,77.2 -93.9,152.4 0,0 89.4,148.5 127.3,253 3.5,9.5 6.5,18.7 9,27.4 l 166.2,-79.7 36.7,-17.6"
         style="fill:#16c47f;fill-opacity:1;fill-rule:nonzero;stroke:none"
         transform="matrix(0.13333333,0,0,-0.13333333,0,666.66667)" />
      <path
         id="path173"
         d="m 1968.2,3772.5 c 0,0 -3.2,-16 -9.8,-41.4 -39,30.2 -162.9,92 -202.1,111.3 3.5,9.5 6.5,18.7 9,27.4 l 166.2,-79.7 36.7,-17.6"
         style="fill:#06452b;fill-opacity:1;fill-rule:nonzero;stroke:none"
         transform="matrix(0.13333333,0,0,-0.13333333,0,666.66667)" />
      <path
         id="path174"
         d="m 1902.03,3571.24 c 0.85,1.81 1.68,3.62 2.5,5.44 -0.82,-1.81 -1.66,-3.64 -2.5,-5.44 v 0"
         style="fill:#c5cac1;fill-opacity:1;fill-rule:nonzero;stroke:none"
         transform="matrix(0.13333333,0,0,-0.13333333,0,666.66667)" />
      <path
         id="path175"
         d="m 1809.89,3436.11 c 0,0.01 0,0.01 -0.01,0.01 37.97,34.14 68.46,84.1 92.15,135.12 v 0 c -23.69,-51.04 -54.17,-101 -92.14,-135.13"
         style="fill:#b3b9b4;fill-opacity:1;fill-rule:nonzero;stroke:none"
         transform="matrix(0.13333333,0,0,-0.13333333,0,666.66667)" />
      <path
         id="path176"
         d="m 1809.88,3436.12 c -11.01,20.43 -22.28,38.52 -33.49,54.5 70.91,84.51 118.83,197.79 143.39,265.61 16.01,-9.45 29.58,-18.13 38.61,-25.12 -9.91,-37.8 -27.53,-96.47 -53.86,-154.43 -0.82,-1.82 -1.65,-3.63 -2.5,-5.44 -23.69,-51.02 -54.18,-100.98 -92.15,-135.12"
         style="fill:#0e9c63;fill-opacity:1;fill-rule:nonzero;stroke:none"
         transform="matrix(0.13333333,0,0,-0.13333333,0,666.66667)" />
      <path
         id="path177"
         d="m 1960.04,3737.5 c 5.49,21.66 8.16,35 8.16,35 v 0 0 l -34.93,16.75 34.96,-16.74 c 0,0 -2.65,-13.34 -8.19,-35.01"
         style="fill:#c5cac1;fill-opacity:1;fill-rule:nonzero;stroke:none"
         transform="matrix(0.13333333,0,0,-0.13333333,0,666.66667)" />
      <path
         id="path178"
         d="m 1958.39,3731.11 c -9.03,6.99 -22.6,15.67 -38.61,25.12 4.77,13.2 8.67,24.68 11.67,33.89 l 1.82,-0.87 34.93,-16.75 c 0,0 -2.67,-13.34 -8.16,-35 -0.52,-2.06 -1.07,-4.19 -1.65,-6.39"
         style="fill:#032e1c;fill-opacity:1;fill-rule:nonzero;stroke:none"
         transform="matrix(0.13333333,0,0,-0.13333333,0,666.66667)" />
      <path
         id="path179"
         d="m 1340.5,3290.9 c -3.1,-19.6 -6.9,-33 -6.9,-33 l -9.9,-112.6 -11.2,-108.4 -3.2,-31.4 c -18.9,-26.5 -82.9,-28.9 -143.4,-24.5 v 0.1 c -63.5,4.6 -123.2,16.8 -123.2,16.8 0,0 1.6,12.2 5.2,33.1 8.6,50.4 28.9,151.6 67.1,255.4 26.8,72.6 65.1,112.7 97,134.6 28.5,19.7 51.8,24.8 57.2,25.8 l 1.1,0.1 c 82.2,-7.7 78.4,-103.9 70.2,-156"
         style="fill:#16c47f;fill-opacity:1;fill-rule:nonzero;stroke:none"
         transform="matrix(0.13333333,0,0,-0.13333333,0,666.66667)" />
      <path
         id="path180"
         d="m 1312.5,3036.9 -3.2,-31.4 c -18.9,-26.5 -82.9,-28.9 -143.4,-24.5 v 0.1 c -63.5,4.6 -123.2,16.8 -123.2,16.8 0,0 1.6,12.2 5.2,33.1 26.5,-7 89.61,-16.09 145.74,-16.83 63.02,-0.83 99.66,14.13 118.86,22.73"
         style="fill:#06452b;fill-opacity:1;fill-rule:nonzero;stroke:none"
         transform="matrix(0.13333333,0,0,-0.13333333,0,666.66667)" />
      <path
         id="path181"
         d="m 1565.71,3558.1 c 0,0 129.8,19.83 212.23,-53.54 82.46,-73.36 164.32,-227.26 114.48,-319.61 l 20.19,-133.76 c 0,0 135.75,213.24 -9.9,419.83 -98.01,138.98 -223.28,142.38 -286.58,133.04 -6.9,-19.8 -22.43,-34.71 -43.02,-41.84 l -7.4,-4.12"
         style="fill:#2f2a42;fill-opacity:1;fill-rule:nonzero;stroke:none"
         transform="matrix(0.13333333,0,0,-0.13333333,0,666.66667)" />
      <path
         id="path182"
         d="m 1252.67,3442.14 c 0,0 37.17,84.91 106.45,75.12 69.27,-9.79 276.67,-291.6 232.78,-498.84 -43.89,-207.24 -223.16,-229.27 -223.16,-229.27 0,0 -34.72,52.61 4.3,101.54 0,0 117.8,28.89 149.61,163.81 31.8,134.91 -128.51,408.59 -187.4,416.98 -21.2,3.02 -37.15,-19.52 -37.15,-19.52 0,0 -24.93,-6.78 -45.43,-9.82"
         style="fill:#2f2a42;fill-opacity:1;fill-rule:nonzero;stroke:none"
         transform="matrix(0.13333333,0,0,-0.13333333,0,666.66667)" />
      <path
         id="path183"
         d="m 1334.15,2517.62 c -7.2,1.46 -11.6,2.35 -11.6,2.35 0,0 8.65,32.8 18.8,82.52 l 0.02,-0.01 c -10.14,-49.69 -18.77,-82.48 -18.77,-82.48 0,0 4.38,-0.89 11.56,-2.35 -0.01,-0.01 -0.01,-0.01 -0.01,-0.03 m 635.01,29.21 v 0.01 c 19.7,5.77 31.04,9.46 31.04,9.46 0,0 -5.06,23.69 -12.95,63 7.91,-39.32 12.98,-63.01 12.98,-63.01 0,0 -11.35,-3.69 -31.07,-9.46"
         style="fill:#b3b9b4;fill-opacity:1;fill-rule:nonzero;stroke:none"
         transform="matrix(0.13333333,0,0,-0.13333333,0,666.66667)" />
      <path
         id="path184"
         d="m 1341.37,2602.48 -0.02,0.01 c 5.41,26.49 11.25,57.78 16.44,91.47 -5.18,-33.71 -11.01,-64.98 -16.42,-91.48"
         style="fill:#2f2a42;fill-opacity:1;fill-rule:nonzero;stroke:none"
         transform="matrix(0.13333333,0,0,-0.13333333,0,666.66667)" />
      <path
         id="path185"
         d="m 1600.97,2479.71 c 142.7,5.35 302.29,47.85 368.19,67.13 v -0.01 c -65.92,-19.29 -225.5,-61.79 -368.19,-67.12 m -181.1,20.25 c -28.42,5.99 -66.77,13.81 -85.72,17.66 0,0.02 0,0.02 0.01,0.03 18.93,-3.85 57.29,-11.68 85.71,-17.69"
         style="fill:#2f2a42;fill-opacity:1;fill-rule:nonzero;stroke:none"
         transform="matrix(0.13333333,0,0,-0.13333333,0,666.66667)" />
      <path
         id="path186"
         d="m 1572.1,2479.15 c -42.9,0 -83.48,3.88 -118.6,13.38 -4.21,1.14 -17.27,3.98 -33.63,7.43 -28.42,6.01 -66.78,13.84 -85.71,17.69 -7.18,1.46 -11.56,2.35 -11.56,2.35 0,0 8.63,32.79 18.77,82.48 5.41,26.5 11.24,57.77 16.42,91.48 4.67,30.4 8.82,62.74 11.65,95.28 6.42,0.93 55.95,9.04 107.61,45.6 27.94,-65.37 69.35,-129.99 130.96,-180.33 35.92,-29.35 108.19,-44.03 179.03,-44.03 93.08,0 183.7,25.33 186.22,76 0.04,0.95 0.1,1.85 0.21,2.7 5.12,-26.54 9.81,-50.18 13.78,-69.88 7.89,-39.31 12.95,-63 12.95,-63 0,0 -11.34,-3.69 -31.04,-9.46 -65.9,-19.28 -225.49,-61.78 -368.19,-67.13 -9.71,-0.37 -19.35,-0.56 -28.87,-0.56"
         style="fill:#0e9c63;fill-opacity:1;fill-rule:nonzero;stroke:none"
         transform="matrix(0.13333333,0,0,-0.13333333,0,666.66667)" />
      <path
         id="path187"
         d="m 1293.6,2992.69 c 6.69,3.45 12.04,7.68 15.7,12.81 l 3.2,31.4 v 0 l 11.2,108.4 c 0.01,-0.02 0.02,-0.04 0.02,-0.06 l -14.41,-139.77 c -3.66,-5.12 -9.02,-9.34 -15.71,-12.78 m 66.64,15.13 c -2.34,13.84 -5.13,28.53 -8.49,43.68 3.36,-15.15 6.16,-29.83 8.49,-43.68"
         style="fill:#2f2a42;fill-opacity:1;fill-rule:nonzero;stroke:none"
         transform="matrix(0.13333333,0,0,-0.13333333,0,666.66667)" />
      <path
         id="path188"
         d="m 1373.03,2890.69 c -0.42,15.51 -1.38,30.59 -2.98,45.05 -2,18 -4.92,43.2 -9.81,72.08 -2.33,13.85 -5.13,28.53 -8.49,43.68 -6.74,30.45 -15.77,62.76 -28.01,93.85 l -0.02,-0.11 c 0,0.02 -0.01,0.04 -0.02,0.06 l 9.9,112.6 c 0,0 3.8,13.39 6.9,32.98 18.84,-32.19 73.33,-131.44 79.71,-211.34 3.01,-37.51 9.45,-91.44 24.91,-150.54 -37.03,-29.71 -72.08,-38.31 -72.08,-38.31 -0.01,0 0,0 -0.01,0"
         style="fill:#0e9c63;fill-opacity:1;fill-rule:nonzero;stroke:none"
         transform="matrix(0.13333333,0,0,-0.13333333,0,666.66667)" />
      <path
         id="path189"
         d="m 1208.78,3014.27 c 27.26,26.94 58.45,70.81 64.12,133.67 3.02,33.6 9.48,60.65 17.12,82.11 18.56,52.31 44.13,71.45 44.13,71.45 0,0 2.38,-3.79 6.32,-10.58 0.01,-0.01 0.02,-0.02 0.03,-0.04 -3.1,-19.59 -6.9,-32.98 -6.9,-32.98 l -9.9,-112.6 -11.2,-108.4 c -17.61,-7.89 -49.87,-21.13 -103.72,-22.63"
         style="fill:#0e9c63;fill-opacity:1;fill-rule:nonzero;stroke:none"
         transform="matrix(0.13333333,0,0,-0.13333333,0,666.66667)" />
      <path
         id="path190"
         d="m 1210.58,2979.26 c -14.61,0 -29.74,0.68 -44.66,1.77 v 0.02 c 0,0 20.05,10.68 42.86,33.22 53.85,1.5 86.11,14.74 103.72,22.63 v 0 l -3.2,-31.4 c -3.66,-5.13 -9.01,-9.36 -15.7,-12.81 -19.33,-9.95 -49.84,-13.43 -83.02,-13.43"
         style="fill:#032e1c;fill-opacity:1;fill-rule:nonzero;stroke:none"
         transform="matrix(0.13333333,0,0,-0.13333333,0,666.66667)" />
      <path
         id="path191"
         d="m 1369.44,2789.24 c 2.97,34.28 4.48,68.8 3.59,101.45 0.01,0 0,0 0.01,0 0,0 35.05,8.6 72.08,38.31 7.98,-30.52 18.37,-62.43 31.93,-94.16 -51.66,-36.56 -101.19,-44.67 -107.61,-45.6"
         style="fill:#2f2a42;fill-opacity:1;fill-rule:nonzero;stroke:none"
         transform="matrix(0.13333333,0,0,-0.13333333,0,666.66667)" />
    </g>
  </g>
</svg>
