<svg xmlns="http://www.w3.org/2000/svg" xmlns:xlink="http://www.w3.org/1999/xlink" width="500" zoomAndPan="magnify" viewBox="0 0 375 374.999991" height="500" preserveAspectRatio="xMidYMid meet" version="1.0"><defs><clipPath id="5a3406b69e"><path d="M 24.03125 24.03125 L 350.96875 24.03125 L 350.96875 350.96875 L 24.03125 350.96875 Z M 24.03125 24.03125 " clip-rule="nonzero"/></clipPath><clipPath id="bad9cae2c8"><path d="M 99.03125 24.03125 L 275.96875 24.03125 C 317.390625 24.03125 350.96875 57.609375 350.96875 99.03125 L 350.96875 275.96875 C 350.96875 317.390625 317.390625 350.96875 275.96875 350.96875 L 99.03125 350.96875 C 57.609375 350.96875 24.03125 317.390625 24.03125 275.96875 L 24.03125 99.03125 C 24.03125 57.609375 57.609375 24.03125 99.03125 24.03125 Z M 99.03125 24.03125 " clip-rule="nonzero"/></clipPath><clipPath id="20f0a075f7"><path d="M 0.03125 0.03125 L 326.96875 0.03125 L 326.96875 326.96875 L 0.03125 326.96875 Z M 0.03125 0.03125 " clip-rule="nonzero"/></clipPath><clipPath id="e5591a34ea"><path d="M 75.03125 0.03125 L 251.96875 0.03125 C 293.390625 0.03125 326.96875 33.609375 326.96875 75.03125 L 326.96875 251.96875 C 326.96875 293.390625 293.390625 326.96875 251.96875 326.96875 L 75.03125 326.96875 C 33.609375 326.96875 0.03125 293.390625 0.03125 251.96875 L 0.03125 75.03125 C 0.03125 33.609375 33.609375 0.03125 75.03125 0.03125 Z M 75.03125 0.03125 " clip-rule="nonzero"/></clipPath><clipPath id="705625eb27"><rect x="0" width="327" y="0" height="327"/></clipPath></defs><g clip-path="url(#5a3406b69e)"><g clip-path="url(#bad9cae2c8)"><g transform="matrix(1, 0, 0, 1, 24, 24)"><g clip-path="url(#705625eb27)"><g clip-path="url(#20f0a075f7)"><g clip-path="url(#e5591a34ea)"><path fill="#5b8def" d="M 0.03125 0.03125 L 326.96875 0.03125 L 326.96875 326.96875 L 0.03125 326.96875 Z M 0.03125 0.03125 " fill-opacity="1" fill-rule="nonzero"/></g></g></g></g></g></g><path fill="#ffffff" d="M 162.949219 164.214844 C 170.4375 169.660156 177.707031 166.625 179.117188 157.476562 L 185.21875 117.828125 C 186.625 108.679688 188.925781 108.679688 190.332031 117.828125 L 196.433594 157.476562 C 197.84375 166.625 205.117188 169.65625 212.601562 164.214844 L 247.082031 139.136719 C 254.566406 133.691406 256.238281 135.363281 250.789062 142.851562 L 225.714844 177.328125 C 220.265625 184.816406 223.296875 192.085938 232.445312 193.492188 L 272.097656 199.59375 C 281.246094 201.003906 281.246094 203.300781 272.097656 204.710938 L 232.445312 210.8125 C 223.296875 212.21875 220.265625 219.496094 225.714844 226.976562 L 250.789062 261.460938 C 256.238281 268.941406 254.566406 270.613281 247.082031 265.167969 L 212.601562 240.089844 C 205.117188 234.644531 197.84375 237.671875 196.433594 246.820312 L 190.332031 286.476562 C 188.925781 295.625 186.625 295.625 185.21875 286.476562 L 179.117188 246.820312 C 177.707031 237.671875 170.433594 234.644531 162.949219 240.089844 L 128.472656 265.167969 C 120.992188 270.613281 119.605469 269.167969 125.410156 261.953125 L 153.933594 226.484375 C 159.730469 219.269531 156.972656 212.332031 147.808594 211.070312 L 102.617188 204.828125 C 93.453125 203.558594 93.429688 201.351562 102.570312 199.914062 L 143.113281 193.546875 C 152.253906 192.113281 155.285156 184.808594 149.835938 177.328125 L 124.761719 142.851562 C 119.3125 135.367188 120.984375 133.695312 128.46875 139.144531 Z M 162.949219 164.214844 " fill-opacity="1" fill-rule="nonzero"/></svg>