<svg xmlns="http://www.w3.org/2000/svg" xmlns:xlink="http://www.w3.org/1999/xlink" width="500" zoomAndPan="magnify" viewBox="0 0 375 374.999991" height="500" preserveAspectRatio="xMidYMid meet" version="1.0"><defs><clipPath id="af31cfc15c"><path d="M 22.207031 22.207031 L 352.957031 22.207031 L 352.957031 352.957031 L 22.207031 352.957031 Z M 22.207031 22.207031 " clip-rule="nonzero"/></clipPath></defs><g clip-path="url(#af31cfc15c)"><path fill="#6592ff" d="M 187.5 35.210938 C 269.234375 35.210938 336.144531 99.9375 339.585938 180.878906 L 311.460938 180.878906 C 309.9375 149.574219 296.898438 120.257812 274.265625 97.820312 C 250.503906 74.195312 219.398438 61.289062 186.4375 61.289062 C 185.976562 61.289062 185.511719 61.289062 185.113281 61.289062 C 116.550781 62.015625 61.023438 118.667969 61.351562 187.898438 C 62.28125 204.113281 68.371094 245.339844 103.976562 277.707031 C 134.15625 305.171875 168.4375 310.730469 186.4375 311.660156 L 275.453125 311.660156 C 250.570312 329.328125 220.257812 339.71875 187.5 339.71875 C 103.578125 339.785156 35.277344 271.484375 35.277344 187.5 C 35.277344 103.515625 103.578125 35.210938 187.5 35.210938 Z M 257.058594 180.878906 L 226.945312 180.878906 C 209.007812 178.632812 194.117188 167.3125 188.09375 151.164062 C 182.46875 136.140625 186.769531 122.441406 189.945312 115.425781 C 225.621094 117.414062 254.277344 145.539062 257.058594 180.878906 Z M 322.113281 258.511719 L 188.425781 258.445312 C 168.898438 258.777344 150.371094 251.167969 136.339844 237.269531 C 122.507812 223.566406 114.898438 205.5 114.960938 186.4375 C 115.027344 166.78125 123.039062 148.980469 135.941406 136.074219 C 135.082031 140.972656 134.550781 145.933594 134.550781 151.03125 C 134.550781 196.832031 170.027344 234.027344 213.640625 234.027344 L 332.4375 234.027344 C 329.722656 242.5625 326.21875 250.769531 322.113281 258.511719 Z M 336.011719 220.921875 L 213.707031 220.921875 C 177.371094 220.921875 147.855469 189.617188 147.855469 151.097656 C 147.855469 141.433594 149.707031 132.167969 153.28125 123.433594 C 160.164062 119.792969 167.710938 117.34375 175.652344 116.152344 C 172.410156 125.816406 170.027344 140.179688 175.847656 155.796875 C 183.660156 176.710938 202.789062 191.335938 225.882812 194.050781 C 226.148438 194.050781 226.414062 194.117188 226.679688 194.117188 L 339.585938 194.117188 C 339.1875 203.25 337.996094 212.183594 336.011719 220.921875 Z M 291.605469 298.488281 L 186.835938 298.488281 C 170.886719 297.691406 140.046875 292.730469 112.910156 267.976562 C 80.878906 238.859375 75.449219 201.726562 74.589844 187.5 C 74.324219 125.816406 123.964844 75.121094 185.3125 74.457031 C 214.964844 74.128906 243.492188 85.777344 265 107.152344 C 285.117188 127.140625 296.769531 153.082031 298.222656 180.878906 L 270.226562 180.878906 C 267.382812 137.132812 231.046875 102.386719 186.636719 102.054688 C 186.4375 102.054688 186.242188 101.992188 186.042969 101.992188 C 185.777344 101.992188 185.582031 102.054688 185.382812 102.054688 C 139.382812 102.453125 101.925781 140.109375 101.792969 186.375 C 101.726562 209.007812 110.660156 230.386719 127.074219 246.601562 C 143.617188 263.015625 165.589844 271.949219 188.558594 271.617188 L 314.304688 271.683594 C 307.753906 281.476562 300.140625 290.480469 291.605469 298.488281 Z M 187.5 352.957031 C 229.921875 352.957031 268.640625 336.941406 297.890625 310.597656 C 298.421875 310.199219 298.949219 309.804688 299.347656 309.273438 C 311.921875 297.691406 322.710938 284.191406 331.246094 269.234375 C 331.644531 268.703125 331.976562 268.175781 332.238281 267.511719 C 338.925781 255.535156 344.152344 242.628906 347.660156 228.996094 C 347.660156 228.929688 347.726562 228.863281 347.726562 228.796875 C 351.167969 215.558594 352.957031 201.726562 352.957031 187.5 C 352.957031 96.296875 278.765625 22.042969 187.5 22.042969 C 96.234375 22.042969 22.042969 96.296875 22.042969 187.5 C 22.042969 278.699219 96.296875 352.957031 187.5 352.957031 " fill-opacity="1" fill-rule="nonzero"/></g></svg>