<?xml version="1.0" encoding="UTF-8" standalone="no"?>
<svg
   width="435.91666"
   zoomAndPan="magnify"
   viewBox="0 0 326.93749 326.93751"
   height="435.91669"
   preserveAspectRatio="xMidYMid"
   version="1.0"
   id="svg14"
   xmlns="http://www.w3.org/2000/svg"
   xmlns:svg="http://www.w3.org/2000/svg">
  <defs
     id="defs6">
    <clipPath
       id="ff7e5f779d">
      <path
         d="m 24.03125,24.03125 h 326.9375 v 326.9375 H 24.03125 Z m 0,0"
         clip-rule="nonzero"
         id="path1" />
    </clipPath>
    <clipPath
       id="01570ec7b2">
      <path
         d="m 99.03125,24.03125 h 176.9375 c 41.42187,0 75,33.578125 75,75 v 176.9375 c 0,41.42187 -33.57813,75 -75,75 H 99.03125 c -41.421875,0 -75,-33.57813 -75,-75 V 99.03125 c 0,-41.421875 33.578125,-75 75,-75 z m 0,0"
         clip-rule="nonzero"
         id="path2" />
    </clipPath>
    <clipPath
       id="fc504e03a2">
      <path
         d="m 0.03125,0.03125 h 326.9375 v 326.9375 H 0.03125 Z m 0,0"
         clip-rule="nonzero"
         id="path3" />
    </clipPath>
    <clipPath
       id="a37eadefa1">
      <path
         d="m 75.03125,0.03125 h 176.9375 c 41.42187,0 75,33.578125 75,75 v 176.9375 c 0,41.42187 -33.57813,75 -75,75 H 75.03125 c -41.421875,0 -75,-33.57813 -75,-75 V 75.03125 c 0,-41.421875 33.578125,-75 75,-75 z m 0,0"
         clip-rule="nonzero"
         id="path4" />
    </clipPath>
    <clipPath
       id="75e462eaaa">
      <rect
         x="0"
         width="327"
         y="0"
         height="327"
         id="rect4" />
    </clipPath>
    <clipPath
       id="107f764e13">
      <path
         d="M 87.371094,66.863281 H 287.62109 V 308.36328 H 87.371094 Z m 0,0"
         clip-rule="nonzero"
         id="path5" />
    </clipPath>
    <clipPath
       id="20653ea33a">
      <path
         d="m 216,66.863281 h 25 V 91 h -25 z m 0,0"
         clip-rule="nonzero"
         id="path6" />
    </clipPath>
  </defs>
  <g
     clip-path="url(#ff7e5f779d)"
     id="g12"
     transform="translate(-24.031252,-24.03125)">
    <g
       clip-path="url(#01570ec7b2)"
       id="g11">
      <g
         transform="translate(24,24)"
         id="g10">
        <g
           clip-path="url(#75e462eaaa)"
           id="g9">
          <g
             clip-path="url(#fc504e03a2)"
             id="g8">
            <g
               clip-path="url(#a37eadefa1)"
               id="g7">
              <path
                 fill="#5b8def"
                 d="m 0.03125,0.03125 h 326.9375 v 326.9375 H 0.03125 Z m 0,0"
                 fill-opacity="1"
                 fill-rule="nonzero"
                 id="path7" />
            </g>
          </g>
        </g>
      </g>
    </g>
  </g>
  <g
     clip-path="url(#107f764e13)"
     id="g13"
     transform="translate(-24.031252,-24.03125)">
    <path
       fill="#ffffff"
       d="m 248.35156,193.14062 c 0,20.11719 -9.21484,38.0625 -23.68359,49.88282 -13.21875,10.80468 -20.16797,25.46875 -20.16797,42.5 v 22.57422 h -41.10156 v -22.625 c 0,-17.02735 -6.94532,-31.69141 -20.16407,-42.5 -14.375,-11.76954 -23.63671,-29.71485 -23.63671,-49.83204 0,-35.55468 28.80078,-64.35546 64.35156,-64.35546 h 38.01562 V 166.75 h 26.38672 z M 263.93359,66.890625 h 23.6875 v 23.6875 h -23.6875 z M 184,128.78516 V 96.511719 c -53.35547,0 -96.628906,43.273441 -96.628906,96.628901 0,46.3125 32.562496,85 76.078126,94.40625 h 41.10156 C 248.01562,278.14062 280.625,239.45312 280.625,193.14062 H 221.96484 V 166.75 H 184 Z m 0,0"
       fill-opacity="1"
       fill-rule="evenodd"
       id="path12" />
  </g>
  <path
     fill="#ffffff"
     d="m 216.89062,85.74609 h 37.96875 v 37.96875 h -37.96875 z m 0,0"
     fill-opacity="1"
     fill-rule="evenodd"
     id="path13" />
  <g
     clip-path="url(#20653ea33a)"
     id="g14"
     transform="translate(-24.031252,-24.03125)">
    <path
       fill="#ffffff"
       d="m 216.89844,66.890625 h 23.6875 v 23.6875 h -23.6875 z m 0,0"
       fill-opacity="1"
       fill-rule="evenodd"
       id="path14" />
  </g>
</svg>
